<?xml version="1.0" encoding="utf-8" standalone="no"?>
<!DOCTYPE svg PUBLIC "-//W3C//DTD SVG 1.1//EN"
  "http://www.w3.org/Graphics/SVG/1.1/DTD/svg11.dtd">
<svg xmlns:xlink="http://www.w3.org/1999/xlink" width="273.312pt" height="273.312pt" viewBox="0 0 273.312 273.312" xmlns="http://www.w3.org/2000/svg" version="1.1">
 <metadata>
  <rdf:RDF xmlns:dc="http://purl.org/dc/elements/1.1/" xmlns:cc="http://creativecommons.org/ns#" xmlns:rdf="http://www.w3.org/1999/02/22-rdf-syntax-ns#">
   <cc:Work>
    <dc:type rdf:resource="http://purl.org/dc/dcmitype/StillImage"/>
    <dc:date>2023-10-25T17:30:13.652749</dc:date>
    <dc:format>image/svg+xml</dc:format>
    <dc:creator>
     <cc:Agent>
      <dc:title>Matplotlib v3.8.0, https://matplotlib.org/</dc:title>
     </cc:Agent>
    </dc:creator>
   </cc:Work>
  </rdf:RDF>
 </metadata>
 <defs>
  <style type="text/css">*{stroke-linejoin: round; stroke-linecap: butt}</style>
 </defs>
 <g id="figure_1">
  <g id="patch_1">
   <path d="M 0 273.312 
L 273.312 273.312 
L 273.312 0 
L 0 0 
z
" style="fill: #ffffff"/>
  </g>
  <g id="axes_1">
   <g id="line2d_1">
    <path d="M 15.696 133.995279 
L 20.544096 107.912087 
L 23.452954 93.352725 
L 25.877002 82.270083 
L 27.81624 74.272302 
L 29.755479 67.17177 
L 31.209908 62.497152 
L 32.664337 58.422815 
L 34.118766 54.981739 
L 35.573194 52.201778 
L 36.542814 50.727096 
L 37.512433 49.561664 
L 38.482052 48.709679 
L 39.451671 48.174205 
L 40.421291 47.95717 
L 41.39091 48.059355 
L 42.360529 48.480392 
L 43.330148 49.218766 
L 44.299768 50.27182 
L 45.269387 51.635763 
L 46.239006 53.305688 
L 47.693435 56.370847 
L 49.147864 60.085876 
L 50.602293 64.420705 
L 52.541531 71.103276 
L 54.48077 78.728673 
L 56.420008 87.187224 
L 58.844056 98.745695 
L 61.752914 113.715429 
L 66.60101 140.062048 
L 71.449106 166.104414 
L 74.357964 180.608599 
L 76.782012 191.629137 
L 78.721251 199.567661 
L 80.660489 206.601344 
L 82.114918 211.221417 
L 83.569347 215.237917 
L 85.023776 218.618333 
L 86.478204 221.335302 
L 87.447824 222.766946 
L 88.417443 223.888683 
L 89.387062 224.696477 
L 90.356681 225.187421 
L 91.326301 225.359747 
L 92.29592 225.212835 
L 93.265539 224.747214 
L 94.235158 223.96456 
L 95.204778 222.86769 
L 96.174397 221.46055 
L 97.144016 219.748206 
L 98.598445 216.621206 
L 100.052874 212.846925 
L 101.507303 208.455914 
L 103.446541 201.703992 
L 105.38578 194.016501 
L 107.809828 183.261093 
L 110.233876 171.459034 
L 113.627543 153.685919 
L 123.808545 99.129294 
L 126.232593 87.539584 
L 128.656641 77.052922 
L 130.59588 69.61702 
L 132.535118 63.145321 
L 133.989547 58.98086 
L 135.443976 55.445143 
L 136.898405 52.566789 
L 137.868024 51.02482 
L 138.837643 49.791031 
L 139.807263 48.869861 
L 140.776882 48.264627 
L 141.746501 47.977506 
L 142.71612 48.009533 
L 143.685739 48.36059 
L 144.655359 49.029416 
L 145.624978 50.013603 
L 146.594597 51.309609 
L 147.564216 52.91277 
L 149.018645 55.880508 
L 150.473074 59.502087 
L 151.927503 63.74819 
L 153.381932 68.584448 
L 155.32117 75.882499 
L 157.260409 84.05464 
L 159.684457 95.318879 
L 162.593315 110.037582 
L 166.956601 133.571678 
L 172.774317 164.998631 
L 175.683174 179.588891 
L 178.107222 190.70648 
L 180.046461 198.737684 
L 181.985699 205.875985 
L 183.924938 212.018713 
L 185.379367 215.918692 
L 186.833796 219.177076 
L 188.288224 221.767491 
L 189.257844 223.112757 
L 190.227463 224.146872 
L 191.197082 224.866115 
L 192.166701 225.267896 
L 193.136321 225.35077 
L 194.10594 225.114439 
L 195.075559 224.559753 
L 196.045178 223.688709 
L 197.014798 222.504441 
L 197.984417 221.011211 
L 199.438846 218.204118 
L 200.893275 214.73693 
L 202.347703 210.637715 
L 203.802132 205.939651 
L 205.741371 198.810415 
L 207.680609 190.787229 
L 210.104657 179.678018 
L 213.013515 165.095154 
L 216.891992 144.307897 
L 224.164136 105.106769 
L 227.072994 90.77425 
L 229.497042 79.944682 
L 231.436281 72.187276 
L 233.375519 65.357106 
L 234.829948 60.902615 
L 236.284377 57.061313 
L 237.738806 53.864292 
L 239.193234 51.337431 
L 240.162854 50.035498 
L 241.132473 49.045305 
L 242.102092 48.370416 
L 243.071711 48.01326 
L 244.041331 47.975122 
L 245.01095 48.256139 
L 245.980569 48.8553 
L 246.950188 49.770449 
L 247.919808 50.998293 
L 248.889427 52.534411 
L 250.343856 55.404213 
L 251.798285 58.93171 
L 253.252713 63.088349 
L 254.707142 67.840484 
L 256.646381 75.03585 
L 257.616 78.972867 
L 257.616 78.972867 
" clip-path="url(#ped8fa57286)" style="fill: none; stroke: #ff0000; stroke-linecap: square"/>
    <defs>
     <path id="m911e492baf" d="M -0.49999 0.49999 
L 0.50001 0.49999 
L 0.50001 -0.50001 
L -0.49999 -0.50001 
z
"/>
    </defs>
    <g clip-path="url(#ped8fa57286)">
     <use xlink:href="#m911e492baf" x="15.696" y="133.995279" style="fill: #ff0000"/>
     <use xlink:href="#m911e492baf" x="16.18081" y="131.336953" style="fill: #ff0000"/>
     <use xlink:href="#m911e492baf" x="16.665619" y="128.683413" style="fill: #ff0000"/>
     <use xlink:href="#m911e492baf" x="17.150429" y="126.037048" style="fill: #ff0000"/>
     <use xlink:href="#m911e492baf" x="17.635238" y="123.40024" style="fill: #ff0000"/>
     <use xlink:href="#m911e492baf" x="18.120048" y="120.775361" style="fill: #ff0000"/>
     <use xlink:href="#m911e492baf" x="18.604858" y="118.164773" style="fill: #ff0000"/>
     <use xlink:href="#m911e492baf" x="19.089667" y="115.570826" style="fill: #ff0000"/>
     <use xlink:href="#m911e492baf" x="19.574477" y="112.995855" style="fill: #ff0000"/>
     <use xlink:href="#m911e492baf" x="20.059287" y="110.442176" style="fill: #ff0000"/>
     <use xlink:href="#m911e492baf" x="20.544096" y="107.912087" style="fill: #ff0000"/>
     <use xlink:href="#m911e492baf" x="21.028906" y="105.407866" style="fill: #ff0000"/>
     <use xlink:href="#m911e492baf" x="21.513715" y="102.931767" style="fill: #ff0000"/>
     <use xlink:href="#m911e492baf" x="21.998525" y="100.486017" style="fill: #ff0000"/>
     <use xlink:href="#m911e492baf" x="22.483335" y="98.072817" style="fill: #ff0000"/>
     <use xlink:href="#m911e492baf" x="22.968144" y="95.69434" style="fill: #ff0000"/>
     <use xlink:href="#m911e492baf" x="23.452954" y="93.352725" style="fill: #ff0000"/>
     <use xlink:href="#m911e492baf" x="23.937764" y="91.050081" style="fill: #ff0000"/>
     <use xlink:href="#m911e492baf" x="24.422573" y="88.788479" style="fill: #ff0000"/>
     <use xlink:href="#m911e492baf" x="24.907383" y="86.569954" style="fill: #ff0000"/>
     <use xlink:href="#m911e492baf" x="25.392192" y="84.396503" style="fill: #ff0000"/>
     <use xlink:href="#m911e492baf" x="25.877002" y="82.270083" style="fill: #ff0000"/>
     <use xlink:href="#m911e492baf" x="26.361812" y="80.192606" style="fill: #ff0000"/>
     <use xlink:href="#m911e492baf" x="26.846621" y="78.165942" style="fill: #ff0000"/>
     <use xlink:href="#m911e492baf" x="27.331431" y="76.191915" style="fill: #ff0000"/>
     <use xlink:href="#m911e492baf" x="27.81624" y="74.272302" style="fill: #ff0000"/>
     <use xlink:href="#m911e492baf" x="28.30105" y="72.40883" style="fill: #ff0000"/>
     <use xlink:href="#m911e492baf" x="28.78586" y="70.603177" style="fill: #ff0000"/>
     <use xlink:href="#m911e492baf" x="29.270669" y="68.856966" style="fill: #ff0000"/>
     <use xlink:href="#m911e492baf" x="29.755479" y="67.17177" style="fill: #ff0000"/>
     <use xlink:href="#m911e492baf" x="30.240289" y="65.549105" style="fill: #ff0000"/>
     <use xlink:href="#m911e492baf" x="30.725098" y="63.990431" style="fill: #ff0000"/>
     <use xlink:href="#m911e492baf" x="31.209908" y="62.497152" style="fill: #ff0000"/>
     <use xlink:href="#m911e492baf" x="31.694717" y="61.07061" style="fill: #ff0000"/>
     <use xlink:href="#m911e492baf" x="32.179527" y="59.71209" style="fill: #ff0000"/>
     <use xlink:href="#m911e492baf" x="32.664337" y="58.422815" style="fill: #ff0000"/>
     <use xlink:href="#m911e492baf" x="33.149146" y="57.203944" style="fill: #ff0000"/>
     <use xlink:href="#m911e492baf" x="33.633956" y="56.056574" style="fill: #ff0000"/>
     <use xlink:href="#m911e492baf" x="34.118766" y="54.981739" style="fill: #ff0000"/>
     <use xlink:href="#m911e492baf" x="34.603575" y="53.980405" style="fill: #ff0000"/>
     <use xlink:href="#m911e492baf" x="35.088385" y="53.053473" style="fill: #ff0000"/>
     <use xlink:href="#m911e492baf" x="35.573194" y="52.201778" style="fill: #ff0000"/>
     <use xlink:href="#m911e492baf" x="36.058004" y="51.426086" style="fill: #ff0000"/>
     <use xlink:href="#m911e492baf" x="36.542814" y="50.727096" style="fill: #ff0000"/>
     <use xlink:href="#m911e492baf" x="37.027623" y="50.105435" style="fill: #ff0000"/>
     <use xlink:href="#m911e492baf" x="37.512433" y="49.561664" style="fill: #ff0000"/>
     <use xlink:href="#m911e492baf" x="37.997242" y="49.096273" style="fill: #ff0000"/>
     <use xlink:href="#m911e492baf" x="38.482052" y="48.709679" style="fill: #ff0000"/>
     <use xlink:href="#m911e492baf" x="38.966862" y="48.40223" style="fill: #ff0000"/>
     <use xlink:href="#m911e492baf" x="39.451671" y="48.174205" style="fill: #ff0000"/>
     <use xlink:href="#m911e492baf" x="39.936481" y="48.025807" style="fill: #ff0000"/>
     <use xlink:href="#m911e492baf" x="40.421291" y="47.95717" style="fill: #ff0000"/>
     <use xlink:href="#m911e492baf" x="40.9061" y="47.968356" style="fill: #ff0000"/>
     <use xlink:href="#m911e492baf" x="41.39091" y="48.059355" style="fill: #ff0000"/>
     <use xlink:href="#m911e492baf" x="41.875719" y="48.230085" style="fill: #ff0000"/>
     <use xlink:href="#m911e492baf" x="42.360529" y="48.480392" style="fill: #ff0000"/>
     <use xlink:href="#m911e492baf" x="42.845339" y="48.810051" style="fill: #ff0000"/>
     <use xlink:href="#m911e492baf" x="43.330148" y="49.218766" style="fill: #ff0000"/>
     <use xlink:href="#m911e492baf" x="43.814958" y="49.706168" style="fill: #ff0000"/>
     <use xlink:href="#m911e492baf" x="44.299768" y="50.27182" style="fill: #ff0000"/>
     <use xlink:href="#m911e492baf" x="44.784577" y="50.915211" style="fill: #ff0000"/>
     <use xlink:href="#m911e492baf" x="45.269387" y="51.635763" style="fill: #ff0000"/>
     <use xlink:href="#m911e492baf" x="45.754196" y="52.432828" style="fill: #ff0000"/>
     <use xlink:href="#m911e492baf" x="46.239006" y="53.305688" style="fill: #ff0000"/>
     <use xlink:href="#m911e492baf" x="46.723816" y="54.253557" style="fill: #ff0000"/>
     <use xlink:href="#m911e492baf" x="47.208625" y="55.275584" style="fill: #ff0000"/>
     <use xlink:href="#m911e492baf" x="47.693435" y="56.370847" style="fill: #ff0000"/>
     <use xlink:href="#m911e492baf" x="48.178244" y="57.538361" style="fill: #ff0000"/>
     <use xlink:href="#m911e492baf" x="48.663054" y="58.777076" style="fill: #ff0000"/>
     <use xlink:href="#m911e492baf" x="49.147864" y="60.085876" style="fill: #ff0000"/>
     <use xlink:href="#m911e492baf" x="49.632673" y="61.463585" style="fill: #ff0000"/>
     <use xlink:href="#m911e492baf" x="50.117483" y="62.908961" style="fill: #ff0000"/>
     <use xlink:href="#m911e492baf" x="50.602293" y="64.420705" style="fill: #ff0000"/>
     <use xlink:href="#m911e492baf" x="51.087102" y="65.997456" style="fill: #ff0000"/>
     <use xlink:href="#m911e492baf" x="51.571912" y="67.637795" style="fill: #ff0000"/>
     <use xlink:href="#m911e492baf" x="52.056721" y="69.340246" style="fill: #ff0000"/>
     <use xlink:href="#m911e492baf" x="52.541531" y="71.103276" style="fill: #ff0000"/>
     <use xlink:href="#m911e492baf" x="53.026341" y="72.925299" style="fill: #ff0000"/>
     <use xlink:href="#m911e492baf" x="53.51115" y="74.804676" style="fill: #ff0000"/>
     <use xlink:href="#m911e492baf" x="53.99596" y="76.739714" style="fill: #ff0000"/>
     <use xlink:href="#m911e492baf" x="54.48077" y="78.728673" style="fill: #ff0000"/>
     <use xlink:href="#m911e492baf" x="54.965579" y="80.769763" style="fill: #ff0000"/>
     <use xlink:href="#m911e492baf" x="55.450389" y="82.861147" style="fill: #ff0000"/>
     <use xlink:href="#m911e492baf" x="55.935198" y="85.000942" style="fill: #ff0000"/>
     <use xlink:href="#m911e492baf" x="56.420008" y="87.187224" style="fill: #ff0000"/>
     <use xlink:href="#m911e492baf" x="56.904818" y="89.418024" style="fill: #ff0000"/>
     <use xlink:href="#m911e492baf" x="57.389627" y="91.691335" style="fill: #ff0000"/>
     <use xlink:href="#m911e492baf" x="57.874437" y="94.005111" style="fill: #ff0000"/>
     <use xlink:href="#m911e492baf" x="58.359246" y="96.35727" style="fill: #ff0000"/>
     <use xlink:href="#m911e492baf" x="58.844056" y="98.745695" style="fill: #ff0000"/>
     <use xlink:href="#m911e492baf" x="59.328866" y="101.168237" style="fill: #ff0000"/>
     <use xlink:href="#m911e492baf" x="59.813675" y="103.622716" style="fill: #ff0000"/>
     <use xlink:href="#m911e492baf" x="60.298485" y="106.106922" style="fill: #ff0000"/>
     <use xlink:href="#m911e492baf" x="60.783295" y="108.61862" style="fill: #ff0000"/>
     <use xlink:href="#m911e492baf" x="61.268104" y="111.15555" style="fill: #ff0000"/>
     <use xlink:href="#m911e492baf" x="61.752914" y="113.715429" style="fill: #ff0000"/>
     <use xlink:href="#m911e492baf" x="62.237723" y="116.295953" style="fill: #ff0000"/>
     <use xlink:href="#m911e492baf" x="62.722533" y="118.894799" style="fill: #ff0000"/>
     <use xlink:href="#m911e492baf" x="63.207343" y="121.50963" style="fill: #ff0000"/>
     <use xlink:href="#m911e492baf" x="63.692152" y="124.138091" style="fill: #ff0000"/>
     <use xlink:href="#m911e492baf" x="64.176962" y="126.777817" style="fill: #ff0000"/>
     <use xlink:href="#m911e492baf" x="64.661772" y="129.426433" style="fill: #ff0000"/>
     <use xlink:href="#m911e492baf" x="65.146581" y="132.081555" style="fill: #ff0000"/>
     <use xlink:href="#m911e492baf" x="65.631391" y="134.740794" style="fill: #ff0000"/>
     <use xlink:href="#m911e492baf" x="66.1162" y="137.401756" style="fill: #ff0000"/>
     <use xlink:href="#m911e492baf" x="66.60101" y="140.062048" style="fill: #ff0000"/>
     <use xlink:href="#m911e492baf" x="67.08582" y="142.719274" style="fill: #ff0000"/>
     <use xlink:href="#m911e492baf" x="67.570629" y="145.371043" style="fill: #ff0000"/>
     <use xlink:href="#m911e492baf" x="68.055439" y="148.01497" style="fill: #ff0000"/>
     <use xlink:href="#m911e492baf" x="68.540248" y="150.648674" style="fill: #ff0000"/>
     <use xlink:href="#m911e492baf" x="69.025058" y="153.269786" style="fill: #ff0000"/>
     <use xlink:href="#m911e492baf" x="69.509868" y="155.875946" style="fill: #ff0000"/>
     <use xlink:href="#m911e492baf" x="69.994677" y="158.46481" style="fill: #ff0000"/>
     <use xlink:href="#m911e492baf" x="70.479487" y="161.034048" style="fill: #ff0000"/>
     <use xlink:href="#m911e492baf" x="70.964297" y="163.581346" style="fill: #ff0000"/>
     <use xlink:href="#m911e492baf" x="71.449106" y="166.104414" style="fill: #ff0000"/>
     <use xlink:href="#m911e492baf" x="71.933916" y="168.60098" style="fill: #ff0000"/>
     <use xlink:href="#m911e492baf" x="72.418725" y="171.068798" style="fill: #ff0000"/>
     <use xlink:href="#m911e492baf" x="72.903535" y="173.505647" style="fill: #ff0000"/>
     <use xlink:href="#m911e492baf" x="73.388345" y="175.909333" style="fill: #ff0000"/>
     <use xlink:href="#m911e492baf" x="73.873154" y="178.277695" style="fill: #ff0000"/>
     <use xlink:href="#m911e492baf" x="74.357964" y="180.608599" style="fill: #ff0000"/>
     <use xlink:href="#m911e492baf" x="74.842774" y="182.899949" style="fill: #ff0000"/>
     <use xlink:href="#m911e492baf" x="75.327583" y="185.149683" style="fill: #ff0000"/>
     <use xlink:href="#m911e492baf" x="75.812393" y="187.355775" style="fill: #ff0000"/>
     <use xlink:href="#m911e492baf" x="76.297202" y="189.516241" style="fill: #ff0000"/>
     <use xlink:href="#m911e492baf" x="76.782012" y="191.629137" style="fill: #ff0000"/>
     <use xlink:href="#m911e492baf" x="77.266822" y="193.69256" style="fill: #ff0000"/>
     <use xlink:href="#m911e492baf" x="77.751631" y="195.704655" style="fill: #ff0000"/>
     <use xlink:href="#m911e492baf" x="78.236441" y="197.663609" style="fill: #ff0000"/>
     <use xlink:href="#m911e492baf" x="78.721251" y="199.567661" style="fill: #ff0000"/>
     <use xlink:href="#m911e492baf" x="79.20606" y="201.415097" style="fill: #ff0000"/>
     <use xlink:href="#m911e492baf" x="79.69087" y="203.204254" style="fill: #ff0000"/>
     <use xlink:href="#m911e492baf" x="80.175679" y="204.933521" style="fill: #ff0000"/>
     <use xlink:href="#m911e492baf" x="80.660489" y="206.601344" style="fill: #ff0000"/>
     <use xlink:href="#m911e492baf" x="81.145299" y="208.206221" style="fill: #ff0000"/>
     <use xlink:href="#m911e492baf" x="81.630108" y="209.746707" style="fill: #ff0000"/>
     <use xlink:href="#m911e492baf" x="82.114918" y="211.221417" style="fill: #ff0000"/>
     <use xlink:href="#m911e492baf" x="82.599727" y="212.629022" style="fill: #ff0000"/>
     <use xlink:href="#m911e492baf" x="83.084537" y="213.968257" style="fill: #ff0000"/>
     <use xlink:href="#m911e492baf" x="83.569347" y="215.237917" style="fill: #ff0000"/>
     <use xlink:href="#m911e492baf" x="84.054156" y="216.436857" style="fill: #ff0000"/>
     <use xlink:href="#m911e492baf" x="84.538966" y="217.564001" style="fill: #ff0000"/>
     <use xlink:href="#m911e492baf" x="85.023776" y="218.618333" style="fill: #ff0000"/>
     <use xlink:href="#m911e492baf" x="85.508585" y="219.598904" style="fill: #ff0000"/>
     <use xlink:href="#m911e492baf" x="85.993395" y="220.504832" style="fill: #ff0000"/>
     <use xlink:href="#m911e492baf" x="86.478204" y="221.335302" style="fill: #ff0000"/>
     <use xlink:href="#m911e492baf" x="86.963014" y="222.089566" style="fill: #ff0000"/>
     <use xlink:href="#m911e492baf" x="87.447824" y="222.766946" style="fill: #ff0000"/>
     <use xlink:href="#m911e492baf" x="87.932633" y="223.366832" style="fill: #ff0000"/>
     <use xlink:href="#m911e492baf" x="88.417443" y="223.888683" style="fill: #ff0000"/>
     <use xlink:href="#m911e492baf" x="88.902253" y="224.332032" style="fill: #ff0000"/>
     <use xlink:href="#m911e492baf" x="89.387062" y="224.696477" style="fill: #ff0000"/>
     <use xlink:href="#m911e492baf" x="89.871872" y="224.981693" style="fill: #ff0000"/>
     <use xlink:href="#m911e492baf" x="90.356681" y="225.187421" style="fill: #ff0000"/>
     <use xlink:href="#m911e492baf" x="90.841491" y="225.313477" style="fill: #ff0000"/>
     <use xlink:href="#m911e492baf" x="91.326301" y="225.359747" style="fill: #ff0000"/>
     <use xlink:href="#m911e492baf" x="91.81111" y="225.32619" style="fill: #ff0000"/>
     <use xlink:href="#m911e492baf" x="92.29592" y="225.212835" style="fill: #ff0000"/>
     <use xlink:href="#m911e492baf" x="92.780729" y="225.019785" style="fill: #ff0000"/>
     <use xlink:href="#m911e492baf" x="93.265539" y="224.747214" style="fill: #ff0000"/>
     <use xlink:href="#m911e492baf" x="93.750349" y="224.395367" style="fill: #ff0000"/>
     <use xlink:href="#m911e492baf" x="94.235158" y="223.96456" style="fill: #ff0000"/>
     <use xlink:href="#m911e492baf" x="94.719968" y="223.455182" style="fill: #ff0000"/>
     <use xlink:href="#m911e492baf" x="95.204778" y="222.86769" style="fill: #ff0000"/>
     <use xlink:href="#m911e492baf" x="95.689587" y="222.202613" style="fill: #ff0000"/>
     <use xlink:href="#m911e492baf" x="96.174397" y="221.46055" style="fill: #ff0000"/>
     <use xlink:href="#m911e492baf" x="96.659206" y="220.642169" style="fill: #ff0000"/>
     <use xlink:href="#m911e492baf" x="97.144016" y="219.748206" style="fill: #ff0000"/>
     <use xlink:href="#m911e492baf" x="97.628826" y="218.779466" style="fill: #ff0000"/>
     <use xlink:href="#m911e492baf" x="98.113635" y="217.73682" style="fill: #ff0000"/>
     <use xlink:href="#m911e492baf" x="98.598445" y="216.621206" style="fill: #ff0000"/>
     <use xlink:href="#m911e492baf" x="99.083255" y="215.43363" style="fill: #ff0000"/>
     <use xlink:href="#m911e492baf" x="99.568064" y="214.175158" style="fill: #ff0000"/>
     <use xlink:href="#m911e492baf" x="100.052874" y="212.846925" style="fill: #ff0000"/>
     <use xlink:href="#m911e492baf" x="100.537683" y="211.450125" style="fill: #ff0000"/>
     <use xlink:href="#m911e492baf" x="101.022493" y="209.986016" style="fill: #ff0000"/>
     <use xlink:href="#m911e492baf" x="101.507303" y="208.455914" style="fill: #ff0000"/>
     <use xlink:href="#m911e492baf" x="101.992112" y="206.861198" style="fill: #ff0000"/>
     <use xlink:href="#m911e492baf" x="102.476922" y="205.203301" style="fill: #ff0000"/>
     <use xlink:href="#m911e492baf" x="102.961731" y="203.483717" style="fill: #ff0000"/>
     <use xlink:href="#m911e492baf" x="103.446541" y="201.703992" style="fill: #ff0000"/>
     <use xlink:href="#m911e492baf" x="103.931351" y="199.865728" style="fill: #ff0000"/>
     <use xlink:href="#m911e492baf" x="104.41616" y="197.97058" style="fill: #ff0000"/>
     <use xlink:href="#m911e492baf" x="104.90097" y="196.020252" style="fill: #ff0000"/>
     <use xlink:href="#m911e492baf" x="105.38578" y="194.016501" style="fill: #ff0000"/>
     <use xlink:href="#m911e492baf" x="105.870589" y="191.96113" style="fill: #ff0000"/>
     <use xlink:href="#m911e492baf" x="106.355399" y="189.855987" style="fill: #ff0000"/>
     <use xlink:href="#m911e492baf" x="106.840208" y="187.702968" style="fill: #ff0000"/>
     <use xlink:href="#m911e492baf" x="107.325018" y="185.50401" style="fill: #ff0000"/>
     <use xlink:href="#m911e492baf" x="107.809828" y="183.261093" style="fill: #ff0000"/>
     <use xlink:href="#m911e492baf" x="108.294637" y="180.976234" style="fill: #ff0000"/>
     <use xlink:href="#m911e492baf" x="108.779447" y="178.651489" style="fill: #ff0000"/>
     <use xlink:href="#m911e492baf" x="109.264257" y="176.288952" style="fill: #ff0000"/>
     <use xlink:href="#m911e492baf" x="109.749066" y="173.890747" style="fill: #ff0000"/>
     <use xlink:href="#m911e492baf" x="110.233876" y="171.459034" style="fill: #ff0000"/>
     <use xlink:href="#m911e492baf" x="110.718685" y="168.996001" style="fill: #ff0000"/>
     <use xlink:href="#m911e492baf" x="111.203495" y="166.503863" style="fill: #ff0000"/>
     <use xlink:href="#m911e492baf" x="111.688305" y="163.984865" style="fill: #ff0000"/>
     <use xlink:href="#m911e492baf" x="112.173114" y="161.441272" style="fill: #ff0000"/>
     <use xlink:href="#m911e492baf" x="112.657924" y="158.875375" style="fill: #ff0000"/>
     <use xlink:href="#m911e492baf" x="113.142733" y="156.289481" style="fill: #ff0000"/>
     <use xlink:href="#m911e492baf" x="113.627543" y="153.685919" style="fill: #ff0000"/>
     <use xlink:href="#m911e492baf" x="114.112353" y="151.067031" style="fill: #ff0000"/>
     <use xlink:href="#m911e492baf" x="114.597162" y="148.435173" style="fill: #ff0000"/>
     <use xlink:href="#m911e492baf" x="115.081972" y="145.792716" style="fill: #ff0000"/>
     <use xlink:href="#m911e492baf" x="115.566782" y="143.142036" style="fill: #ff0000"/>
     <use xlink:href="#m911e492baf" x="116.051591" y="140.485519" style="fill: #ff0000"/>
     <use xlink:href="#m911e492baf" x="116.536401" y="137.825556" style="fill: #ff0000"/>
     <use xlink:href="#m911e492baf" x="117.02121" y="135.16454" style="fill: #ff0000"/>
     <use xlink:href="#m911e492baf" x="117.50602" y="132.504866" style="fill: #ff0000"/>
     <use xlink:href="#m911e492baf" x="117.99083" y="129.848928" style="fill: #ff0000"/>
     <use xlink:href="#m911e492baf" x="118.475639" y="127.199116" style="fill: #ff0000"/>
     <use xlink:href="#m911e492baf" x="118.960449" y="124.557815" style="fill: #ff0000"/>
     <use xlink:href="#m911e492baf" x="119.445259" y="121.927401" style="fill: #ff0000"/>
     <use xlink:href="#m911e492baf" x="119.930068" y="119.310242" style="fill: #ff0000"/>
     <use xlink:href="#m911e492baf" x="120.414878" y="116.708693" style="fill: #ff0000"/>
     <use xlink:href="#m911e492baf" x="120.899687" y="114.125095" style="fill: #ff0000"/>
     <use xlink:href="#m911e492baf" x="121.384497" y="111.561773" style="fill: #ff0000"/>
     <use xlink:href="#m911e492baf" x="121.869307" y="109.021035" style="fill: #ff0000"/>
     <use xlink:href="#m911e492baf" x="122.354116" y="106.505166" style="fill: #ff0000"/>
     <use xlink:href="#m911e492baf" x="122.838926" y="104.016431" style="fill: #ff0000"/>
     <use xlink:href="#m911e492baf" x="123.323735" y="101.557069" style="fill: #ff0000"/>
     <use xlink:href="#m911e492baf" x="123.808545" y="99.129294" style="fill: #ff0000"/>
     <use xlink:href="#m911e492baf" x="124.293355" y="96.73529" style="fill: #ff0000"/>
     <use xlink:href="#m911e492baf" x="124.778164" y="94.377213" style="fill: #ff0000"/>
     <use xlink:href="#m911e492baf" x="125.262974" y="92.057183" style="fill: #ff0000"/>
     <use xlink:href="#m911e492baf" x="125.747784" y="89.77729" style="fill: #ff0000"/>
     <use xlink:href="#m911e492baf" x="126.232593" y="87.539584" style="fill: #ff0000"/>
     <use xlink:href="#m911e492baf" x="126.717403" y="85.346079" style="fill: #ff0000"/>
     <use xlink:href="#m911e492baf" x="127.202212" y="83.19875" style="fill: #ff0000"/>
     <use xlink:href="#m911e492baf" x="127.687022" y="81.099529" style="fill: #ff0000"/>
     <use xlink:href="#m911e492baf" x="128.171832" y="79.050305" style="fill: #ff0000"/>
     <use xlink:href="#m911e492baf" x="128.656641" y="77.052922" style="fill: #ff0000"/>
     <use xlink:href="#m911e492baf" x="129.141451" y="75.109178" style="fill: #ff0000"/>
     <use xlink:href="#m911e492baf" x="129.626261" y="73.220822" style="fill: #ff0000"/>
     <use xlink:href="#m911e492baf" x="130.11107" y="71.389553" style="fill: #ff0000"/>
     <use xlink:href="#m911e492baf" x="130.59588" y="69.61702" style="fill: #ff0000"/>
     <use xlink:href="#m911e492baf" x="131.080689" y="67.904817" style="fill: #ff0000"/>
     <use xlink:href="#m911e492baf" x="131.565499" y="66.254486" style="fill: #ff0000"/>
     <use xlink:href="#m911e492baf" x="132.050309" y="64.667511" style="fill: #ff0000"/>
     <use xlink:href="#m911e492baf" x="132.535118" y="63.145321" style="fill: #ff0000"/>
     <use xlink:href="#m911e492baf" x="133.019928" y="61.689286" style="fill: #ff0000"/>
     <use xlink:href="#m911e492baf" x="133.504737" y="60.300716" style="fill: #ff0000"/>
     <use xlink:href="#m911e492baf" x="133.989547" y="58.98086" style="fill: #ff0000"/>
     <use xlink:href="#m911e492baf" x="134.474357" y="57.730907" style="fill: #ff0000"/>
     <use xlink:href="#m911e492baf" x="134.959166" y="56.55198" style="fill: #ff0000"/>
     <use xlink:href="#m911e492baf" x="135.443976" y="55.445143" style="fill: #ff0000"/>
     <use xlink:href="#m911e492baf" x="135.928786" y="54.411389" style="fill: #ff0000"/>
     <use xlink:href="#m911e492baf" x="136.413595" y="53.45165" style="fill: #ff0000"/>
     <use xlink:href="#m911e492baf" x="136.898405" y="52.566789" style="fill: #ff0000"/>
     <use xlink:href="#m911e492baf" x="137.383214" y="51.757603" style="fill: #ff0000"/>
     <use xlink:href="#m911e492baf" x="137.868024" y="51.02482" style="fill: #ff0000"/>
     <use xlink:href="#m911e492baf" x="138.352834" y="50.369099" style="fill: #ff0000"/>
     <use xlink:href="#m911e492baf" x="138.837643" y="49.791031" style="fill: #ff0000"/>
     <use xlink:href="#m911e492baf" x="139.322453" y="49.291135" style="fill: #ff0000"/>
     <use xlink:href="#m911e492baf" x="139.807263" y="48.869861" style="fill: #ff0000"/>
     <use xlink:href="#m911e492baf" x="140.292072" y="48.527589" style="fill: #ff0000"/>
     <use xlink:href="#m911e492baf" x="140.776882" y="48.264627" style="fill: #ff0000"/>
     <use xlink:href="#m911e492baf" x="141.261691" y="48.081211" style="fill: #ff0000"/>
     <use xlink:href="#m911e492baf" x="141.746501" y="47.977506" style="fill: #ff0000"/>
     <use xlink:href="#m911e492baf" x="142.231311" y="47.953606" style="fill: #ff0000"/>
     <use xlink:href="#m911e492baf" x="142.71612" y="48.009533" style="fill: #ff0000"/>
     <use xlink:href="#m911e492baf" x="143.20093" y="48.145235" style="fill: #ff0000"/>
     <use xlink:href="#m911e492baf" x="143.685739" y="48.36059" style="fill: #ff0000"/>
     <use xlink:href="#m911e492baf" x="144.170549" y="48.655406" style="fill: #ff0000"/>
     <use xlink:href="#m911e492baf" x="144.655359" y="49.029416" style="fill: #ff0000"/>
     <use xlink:href="#m911e492baf" x="145.140168" y="49.482285" style="fill: #ff0000"/>
     <use xlink:href="#m911e492baf" x="145.624978" y="50.013603" style="fill: #ff0000"/>
     <use xlink:href="#m911e492baf" x="146.109788" y="50.622894" style="fill: #ff0000"/>
     <use xlink:href="#m911e492baf" x="146.594597" y="51.309609" style="fill: #ff0000"/>
     <use xlink:href="#m911e492baf" x="147.079407" y="52.07313" style="fill: #ff0000"/>
     <use xlink:href="#m911e492baf" x="147.564216" y="52.91277" style="fill: #ff0000"/>
     <use xlink:href="#m911e492baf" x="148.049026" y="53.827773" style="fill: #ff0000"/>
     <use xlink:href="#m911e492baf" x="148.533836" y="54.817316" style="fill: #ff0000"/>
     <use xlink:href="#m911e492baf" x="149.018645" y="55.880508" style="fill: #ff0000"/>
     <use xlink:href="#m911e492baf" x="149.503455" y="57.016393" style="fill: #ff0000"/>
     <use xlink:href="#m911e492baf" x="149.988265" y="58.223948" style="fill: #ff0000"/>
     <use xlink:href="#m911e492baf" x="150.473074" y="59.502087" style="fill: #ff0000"/>
     <use xlink:href="#m911e492baf" x="150.957884" y="60.849658" style="fill: #ff0000"/>
     <use xlink:href="#m911e492baf" x="151.442693" y="62.265451" style="fill: #ff0000"/>
     <use xlink:href="#m911e492baf" x="151.927503" y="63.74819" style="fill: #ff0000"/>
     <use xlink:href="#m911e492baf" x="152.412313" y="65.296541" style="fill: #ff0000"/>
     <use xlink:href="#m911e492baf" x="152.897122" y="66.909111" style="fill: #ff0000"/>
     <use xlink:href="#m911e492baf" x="153.381932" y="68.584448" style="fill: #ff0000"/>
     <use xlink:href="#m911e492baf" x="153.866741" y="70.321045" style="fill: #ff0000"/>
     <use xlink:href="#m911e492baf" x="154.351551" y="72.117339" style="fill: #ff0000"/>
     <use xlink:href="#m911e492baf" x="154.836361" y="73.971713" style="fill: #ff0000"/>
     <use xlink:href="#m911e492baf" x="155.32117" y="75.882499" style="fill: #ff0000"/>
     <use xlink:href="#m911e492baf" x="155.80598" y="77.847977" style="fill: #ff0000"/>
     <use xlink:href="#m911e492baf" x="156.29079" y="79.866379" style="fill: #ff0000"/>
     <use xlink:href="#m911e492baf" x="156.775599" y="81.935887" style="fill: #ff0000"/>
     <use xlink:href="#m911e492baf" x="157.260409" y="84.05464" style="fill: #ff0000"/>
     <use xlink:href="#m911e492baf" x="157.745218" y="86.22073" style="fill: #ff0000"/>
     <use xlink:href="#m911e492baf" x="158.230028" y="88.432208" style="fill: #ff0000"/>
     <use xlink:href="#m911e492baf" x="158.714838" y="90.687085" style="fill: #ff0000"/>
     <use xlink:href="#m911e492baf" x="159.199647" y="92.983331" style="fill: #ff0000"/>
     <use xlink:href="#m911e492baf" x="159.684457" y="95.318879" style="fill: #ff0000"/>
     <use xlink:href="#m911e492baf" x="160.169267" y="97.691628" style="fill: #ff0000"/>
     <use xlink:href="#m911e492baf" x="160.654076" y="100.099442" style="fill: #ff0000"/>
     <use xlink:href="#m911e492baf" x="161.138886" y="102.540154" style="fill: #ff0000"/>
     <use xlink:href="#m911e492baf" x="161.623695" y="105.011569" style="fill: #ff0000"/>
     <use xlink:href="#m911e492baf" x="162.108505" y="107.511461" style="fill: #ff0000"/>
     <use xlink:href="#m911e492baf" x="162.593315" y="110.037582" style="fill: #ff0000"/>
     <use xlink:href="#m911e492baf" x="163.078124" y="112.587657" style="fill: #ff0000"/>
     <use xlink:href="#m911e492baf" x="163.562934" y="115.159392" style="fill: #ff0000"/>
     <use xlink:href="#m911e492baf" x="164.047743" y="117.750472" style="fill: #ff0000"/>
     <use xlink:href="#m911e492baf" x="164.532553" y="120.358567" style="fill: #ff0000"/>
     <use xlink:href="#m911e492baf" x="165.017363" y="122.981328" style="fill: #ff0000"/>
     <use xlink:href="#m911e492baf" x="165.502172" y="125.616395" style="fill: #ff0000"/>
     <use xlink:href="#m911e492baf" x="165.986982" y="128.261397" style="fill: #ff0000"/>
     <use xlink:href="#m911e492baf" x="166.471792" y="130.913954" style="fill: #ff0000"/>
     <use xlink:href="#m911e492baf" x="166.956601" y="133.571678" style="fill: #ff0000"/>
     <use xlink:href="#m911e492baf" x="167.441411" y="136.232177" style="fill: #ff0000"/>
     <use xlink:href="#m911e492baf" x="167.92622" y="138.893059" style="fill: #ff0000"/>
     <use xlink:href="#m911e492baf" x="168.41103" y="141.551927" style="fill: #ff0000"/>
     <use xlink:href="#m911e492baf" x="168.89584" y="144.206389" style="fill: #ff0000"/>
     <use xlink:href="#m911e492baf" x="169.380649" y="146.854056" style="fill: #ff0000"/>
     <use xlink:href="#m911e492baf" x="169.865459" y="149.492545" style="fill: #ff0000"/>
     <use xlink:href="#m911e492baf" x="170.350269" y="152.119483" style="fill: #ff0000"/>
     <use xlink:href="#m911e492baf" x="170.835078" y="154.732504" style="fill: #ff0000"/>
     <use xlink:href="#m911e492baf" x="171.319888" y="157.329258" style="fill: #ff0000"/>
     <use xlink:href="#m911e492baf" x="171.804697" y="159.907407" style="fill: #ff0000"/>
     <use xlink:href="#m911e492baf" x="172.289507" y="162.464632" style="fill: #ff0000"/>
     <use xlink:href="#m911e492baf" x="172.774317" y="164.998631" style="fill: #ff0000"/>
     <use xlink:href="#m911e492baf" x="173.259126" y="167.507123" style="fill: #ff0000"/>
     <use xlink:href="#m911e492baf" x="173.743936" y="169.987851" style="fill: #ff0000"/>
     <use xlink:href="#m911e492baf" x="174.228745" y="172.438583" style="fill: #ff0000"/>
     <use xlink:href="#m911e492baf" x="174.713555" y="174.857112" style="fill: #ff0000"/>
     <use xlink:href="#m911e492baf" x="175.198365" y="177.241264" style="fill: #ff0000"/>
     <use xlink:href="#m911e492baf" x="175.683174" y="179.588891" style="fill: #ff0000"/>
     <use xlink:href="#m911e492baf" x="176.167984" y="181.897882" style="fill: #ff0000"/>
     <use xlink:href="#m911e492baf" x="176.652794" y="184.166158" style="fill: #ff0000"/>
     <use xlink:href="#m911e492baf" x="177.137603" y="186.391678" style="fill: #ff0000"/>
     <use xlink:href="#m911e492baf" x="177.622413" y="188.57244" style="fill: #ff0000"/>
     <use xlink:href="#m911e492baf" x="178.107222" y="190.70648" style="fill: #ff0000"/>
     <use xlink:href="#m911e492baf" x="178.592032" y="192.791878" style="fill: #ff0000"/>
     <use xlink:href="#m911e492baf" x="179.076842" y="194.826758" style="fill: #ff0000"/>
     <use xlink:href="#m911e492baf" x="179.561651" y="196.809288" style="fill: #ff0000"/>
     <use xlink:href="#m911e492baf" x="180.046461" y="198.737684" style="fill: #ff0000"/>
     <use xlink:href="#m911e492baf" x="180.531271" y="200.610211" style="fill: #ff0000"/>
     <use xlink:href="#m911e492baf" x="181.01608" y="202.425184" style="fill: #ff0000"/>
     <use xlink:href="#m911e492baf" x="181.50089" y="204.180968" style="fill: #ff0000"/>
     <use xlink:href="#m911e492baf" x="181.985699" y="205.875985" style="fill: #ff0000"/>
     <use xlink:href="#m911e492baf" x="182.470509" y="207.508708" style="fill: #ff0000"/>
     <use xlink:href="#m911e492baf" x="182.955319" y="209.077669" style="fill: #ff0000"/>
     <use xlink:href="#m911e492baf" x="183.440128" y="210.581455" style="fill: #ff0000"/>
     <use xlink:href="#m911e492baf" x="183.924938" y="212.018713" style="fill: #ff0000"/>
     <use xlink:href="#m911e492baf" x="184.409747" y="213.38815" style="fill: #ff0000"/>
     <use xlink:href="#m911e492baf" x="184.894557" y="214.688533" style="fill: #ff0000"/>
     <use xlink:href="#m911e492baf" x="185.379367" y="215.918692" style="fill: #ff0000"/>
     <use xlink:href="#m911e492baf" x="185.864176" y="217.07752" style="fill: #ff0000"/>
     <use xlink:href="#m911e492baf" x="186.348986" y="218.163974" style="fill: #ff0000"/>
     <use xlink:href="#m911e492baf" x="186.833796" y="219.177076" style="fill: #ff0000"/>
     <use xlink:href="#m911e492baf" x="187.318605" y="220.115915" style="fill: #ff0000"/>
     <use xlink:href="#m911e492baf" x="187.803415" y="220.979646" style="fill: #ff0000"/>
     <use xlink:href="#m911e492baf" x="188.288224" y="221.767491" style="fill: #ff0000"/>
     <use xlink:href="#m911e492baf" x="188.773034" y="222.478741" style="fill: #ff0000"/>
     <use xlink:href="#m911e492baf" x="189.257844" y="223.112757" style="fill: #ff0000"/>
     <use xlink:href="#m911e492baf" x="189.742653" y="223.668967" style="fill: #ff0000"/>
     <use xlink:href="#m911e492baf" x="190.227463" y="224.146872" style="fill: #ff0000"/>
     <use xlink:href="#m911e492baf" x="190.712273" y="224.546041" style="fill: #ff0000"/>
     <use xlink:href="#m911e492baf" x="191.197082" y="224.866115" style="fill: #ff0000"/>
     <use xlink:href="#m911e492baf" x="191.681892" y="225.106805" style="fill: #ff0000"/>
     <use xlink:href="#m911e492baf" x="192.166701" y="225.267896" style="fill: #ff0000"/>
     <use xlink:href="#m911e492baf" x="192.651511" y="225.349242" style="fill: #ff0000"/>
     <use xlink:href="#m911e492baf" x="193.136321" y="225.35077" style="fill: #ff0000"/>
     <use xlink:href="#m911e492baf" x="193.62113" y="225.272479" style="fill: #ff0000"/>
     <use xlink:href="#m911e492baf" x="194.10594" y="225.114439" style="fill: #ff0000"/>
     <use xlink:href="#m911e492baf" x="194.590749" y="224.876793" style="fill: #ff0000"/>
     <use xlink:href="#m911e492baf" x="195.075559" y="224.559753" style="fill: #ff0000"/>
     <use xlink:href="#m911e492baf" x="195.560369" y="224.163607" style="fill: #ff0000"/>
     <use xlink:href="#m911e492baf" x="196.045178" y="223.688709" style="fill: #ff0000"/>
     <use xlink:href="#m911e492baf" x="196.529988" y="223.135488" style="fill: #ff0000"/>
     <use xlink:href="#m911e492baf" x="197.014798" y="222.504441" style="fill: #ff0000"/>
     <use xlink:href="#m911e492baf" x="197.499607" y="221.796136" style="fill: #ff0000"/>
     <use xlink:href="#m911e492baf" x="197.984417" y="221.011211" style="fill: #ff0000"/>
     <use xlink:href="#m911e492baf" x="198.469226" y="220.150371" style="fill: #ff0000"/>
     <use xlink:href="#m911e492baf" x="198.954036" y="219.214393" style="fill: #ff0000"/>
     <use xlink:href="#m911e492baf" x="199.438846" y="218.204118" style="fill: #ff0000"/>
     <use xlink:href="#m911e492baf" x="199.923655" y="217.120454" style="fill: #ff0000"/>
     <use xlink:href="#m911e492baf" x="200.408465" y="215.964378" style="fill: #ff0000"/>
     <use xlink:href="#m911e492baf" x="200.893275" y="214.73693" style="fill: #ff0000"/>
     <use xlink:href="#m911e492baf" x="201.378084" y="213.439215" style="fill: #ff0000"/>
     <use xlink:href="#m911e492baf" x="201.862894" y="212.0724" style="fill: #ff0000"/>
     <use xlink:href="#m911e492baf" x="202.347703" y="210.637715" style="fill: #ff0000"/>
     <use xlink:href="#m911e492baf" x="202.832513" y="209.136451" style="fill: #ff0000"/>
     <use xlink:href="#m911e492baf" x="203.317323" y="207.56996" style="fill: #ff0000"/>
     <use xlink:href="#m911e492baf" x="203.802132" y="205.939651" style="fill: #ff0000"/>
     <use xlink:href="#m911e492baf" x="204.286942" y="204.246992" style="fill: #ff0000"/>
     <use xlink:href="#m911e492baf" x="204.771752" y="202.493505" style="fill: #ff0000"/>
     <use xlink:href="#m911e492baf" x="205.256561" y="200.680769" style="fill: #ff0000"/>
     <use xlink:href="#m911e492baf" x="205.741371" y="198.810415" style="fill: #ff0000"/>
     <use xlink:href="#m911e492baf" x="206.22618" y="196.884126" style="fill: #ff0000"/>
     <use xlink:href="#m911e492baf" x="206.71099" y="194.903636" style="fill: #ff0000"/>
     <use xlink:href="#m911e492baf" x="207.1958" y="192.870727" style="fill: #ff0000"/>
     <use xlink:href="#m911e492baf" x="207.680609" y="190.787229" style="fill: #ff0000"/>
     <use xlink:href="#m911e492baf" x="208.165419" y="188.655016" style="fill: #ff0000"/>
     <use xlink:href="#m911e492baf" x="208.650228" y="186.476007" style="fill: #ff0000"/>
     <use xlink:href="#m911e492baf" x="209.135038" y="184.252164" style="fill: #ff0000"/>
     <use xlink:href="#m911e492baf" x="209.619848" y="181.985488" style="fill: #ff0000"/>
     <use xlink:href="#m911e492baf" x="210.104657" y="179.678018" style="fill: #ff0000"/>
     <use xlink:href="#m911e492baf" x="210.589467" y="177.331831" style="fill: #ff0000"/>
     <use xlink:href="#m911e492baf" x="211.074277" y="174.949038" style="fill: #ff0000"/>
     <use xlink:href="#m911e492baf" x="211.559086" y="172.531785" style="fill: #ff0000"/>
     <use xlink:href="#m911e492baf" x="212.043896" y="170.082246" style="fill: #ff0000"/>
     <use xlink:href="#m911e492baf" x="212.528705" y="167.602625" style="fill: #ff0000"/>
     <use xlink:href="#m911e492baf" x="213.013515" y="165.095154" style="fill: #ff0000"/>
     <use xlink:href="#m911e492baf" x="213.498325" y="162.56209" style="fill: #ff0000"/>
     <use xlink:href="#m911e492baf" x="213.983134" y="160.005713" style="fill: #ff0000"/>
     <use xlink:href="#m911e492baf" x="214.467944" y="157.428322" style="fill: #ff0000"/>
     <use xlink:href="#m911e492baf" x="214.952754" y="154.832238" style="fill: #ff0000"/>
     <use xlink:href="#m911e492baf" x="215.437563" y="152.219796" style="fill: #ff0000"/>
     <use xlink:href="#m911e492baf" x="215.922373" y="149.593348" style="fill: #ff0000"/>
     <use xlink:href="#m911e492baf" x="216.407182" y="146.955257" style="fill: #ff0000"/>
     <use xlink:href="#m911e492baf" x="216.891992" y="144.307897" style="fill: #ff0000"/>
     <use xlink:href="#m911e492baf" x="217.376802" y="141.653651" style="fill: #ff0000"/>
     <use xlink:href="#m911e492baf" x="217.861611" y="138.994908" style="fill: #ff0000"/>
     <use xlink:href="#m911e492baf" x="218.346421" y="136.33406" style="fill: #ff0000"/>
     <use xlink:href="#m911e492baf" x="218.83123" y="133.673501" style="fill: #ff0000"/>
     <use xlink:href="#m911e492baf" x="219.31604" y="131.015627" style="fill: #ff0000"/>
     <use xlink:href="#m911e492baf" x="219.80085" y="128.362828" style="fill: #ff0000"/>
     <use xlink:href="#m911e492baf" x="220.285659" y="125.717493" style="fill: #ff0000"/>
     <use xlink:href="#m911e492baf" x="220.770469" y="123.082002" style="fill: #ff0000"/>
     <use xlink:href="#m911e492baf" x="221.255279" y="120.458726" style="fill: #ff0000"/>
     <use xlink:href="#m911e492baf" x="221.740088" y="117.850027" style="fill: #ff0000"/>
     <use xlink:href="#m911e492baf" x="222.224898" y="115.258252" style="fill: #ff0000"/>
     <use xlink:href="#m911e492baf" x="222.709707" y="112.685734" style="fill: #ff0000"/>
     <use xlink:href="#m911e492baf" x="223.194517" y="110.134787" style="fill: #ff0000"/>
     <use xlink:href="#m911e492baf" x="223.679327" y="107.607707" style="fill: #ff0000"/>
     <use xlink:href="#m911e492baf" x="224.164136" y="105.106769" style="fill: #ff0000"/>
     <use xlink:href="#m911e492baf" x="224.648946" y="102.634223" style="fill: #ff0000"/>
     <use xlink:href="#m911e492baf" x="225.133756" y="100.192295" style="fill: #ff0000"/>
     <use xlink:href="#m911e492baf" x="225.618565" y="97.783181" style="fill: #ff0000"/>
     <use xlink:href="#m911e492baf" x="226.103375" y="95.40905" style="fill: #ff0000"/>
     <use xlink:href="#m911e492baf" x="226.588184" y="93.072039" style="fill: #ff0000"/>
     <use xlink:href="#m911e492baf" x="227.072994" y="90.77425" style="fill: #ff0000"/>
     <use xlink:href="#m911e492baf" x="227.557804" y="88.517752" style="fill: #ff0000"/>
     <use xlink:href="#m911e492baf" x="228.042613" y="86.304575" style="fill: #ff0000"/>
     <use xlink:href="#m911e492baf" x="228.527423" y="84.136711" style="fill: #ff0000"/>
     <use xlink:href="#m911e492baf" x="229.012232" y="82.016111" style="fill: #ff0000"/>
     <use xlink:href="#m911e492baf" x="229.497042" y="79.944682" style="fill: #ff0000"/>
     <use xlink:href="#m911e492baf" x="229.981852" y="77.924291" style="fill: #ff0000"/>
     <use xlink:href="#m911e492baf" x="230.466661" y="75.956754" style="fill: #ff0000"/>
     <use xlink:href="#m911e492baf" x="230.951471" y="74.043842" style="fill: #ff0000"/>
     <use xlink:href="#m911e492baf" x="231.436281" y="72.187276" style="fill: #ff0000"/>
     <use xlink:href="#m911e492baf" x="231.92109" y="70.388729" style="fill: #ff0000"/>
     <use xlink:href="#m911e492baf" x="232.4059" y="68.649817" style="fill: #ff0000"/>
     <use xlink:href="#m911e492baf" x="232.890709" y="66.972106" style="fill: #ff0000"/>
     <use xlink:href="#m911e492baf" x="233.375519" y="65.357106" style="fill: #ff0000"/>
     <use xlink:href="#m911e492baf" x="233.860329" y="63.806271" style="fill: #ff0000"/>
     <use xlink:href="#m911e492baf" x="234.345138" y="62.320995" style="fill: #ff0000"/>
     <use xlink:href="#m911e492baf" x="234.829948" y="60.902615" style="fill: #ff0000"/>
     <use xlink:href="#m911e492baf" x="235.314758" y="59.552409" style="fill: #ff0000"/>
     <use xlink:href="#m911e492baf" x="235.799567" y="58.27159" style="fill: #ff0000"/>
     <use xlink:href="#m911e492baf" x="236.284377" y="57.061313" style="fill: #ff0000"/>
     <use xlink:href="#m911e492baf" x="236.769186" y="55.922665" style="fill: #ff0000"/>
     <use xlink:href="#m911e492baf" x="237.253996" y="54.856671" style="fill: #ff0000"/>
     <use xlink:href="#m911e492baf" x="237.738806" y="53.864292" style="fill: #ff0000"/>
     <use xlink:href="#m911e492baf" x="238.223615" y="52.946419" style="fill: #ff0000"/>
     <use xlink:href="#m911e492baf" x="238.708425" y="52.10388" style="fill: #ff0000"/>
     <use xlink:href="#m911e492baf" x="239.193234" y="51.337431" style="fill: #ff0000"/>
     <use xlink:href="#m911e492baf" x="239.678044" y="50.647764" style="fill: #ff0000"/>
     <use xlink:href="#m911e492baf" x="240.162854" y="50.035498" style="fill: #ff0000"/>
     <use xlink:href="#m911e492baf" x="240.647663" y="49.501185" style="fill: #ff0000"/>
     <use xlink:href="#m911e492baf" x="241.132473" y="49.045305" style="fill: #ff0000"/>
     <use xlink:href="#m911e492baf" x="241.617283" y="48.668269" style="fill: #ff0000"/>
     <use xlink:href="#m911e492baf" x="242.102092" y="48.370416" style="fill: #ff0000"/>
     <use xlink:href="#m911e492baf" x="242.586902" y="48.152014" style="fill: #ff0000"/>
     <use xlink:href="#m911e492baf" x="243.071711" y="48.01326" style="fill: #ff0000"/>
     <use xlink:href="#m911e492baf" x="243.556521" y="47.954278" style="fill: #ff0000"/>
     <use xlink:href="#m911e492baf" x="244.041331" y="47.975122" style="fill: #ff0000"/>
     <use xlink:href="#m911e492baf" x="244.52614" y="48.075772" style="fill: #ff0000"/>
     <use xlink:href="#m911e492baf" x="245.01095" y="48.256139" style="fill: #ff0000"/>
     <use xlink:href="#m911e492baf" x="245.49576" y="48.51606" style="fill: #ff0000"/>
     <use xlink:href="#m911e492baf" x="245.980569" y="48.8553" style="fill: #ff0000"/>
     <use xlink:href="#m911e492baf" x="246.465379" y="49.273556" style="fill: #ff0000"/>
     <use xlink:href="#m911e492baf" x="246.950188" y="49.770449" style="fill: #ff0000"/>
     <use xlink:href="#m911e492baf" x="247.434998" y="50.345534" style="fill: #ff0000"/>
     <use xlink:href="#m911e492baf" x="247.919808" y="50.998293" style="fill: #ff0000"/>
     <use xlink:href="#m911e492baf" x="248.404617" y="51.728137" style="fill: #ff0000"/>
     <use xlink:href="#m911e492baf" x="248.889427" y="52.534411" style="fill: #ff0000"/>
     <use xlink:href="#m911e492baf" x="249.374236" y="53.416389" style="fill: #ff0000"/>
     <use xlink:href="#m911e492baf" x="249.859046" y="54.373276" style="fill: #ff0000"/>
     <use xlink:href="#m911e492baf" x="250.343856" y="55.404213" style="fill: #ff0000"/>
     <use xlink:href="#m911e492baf" x="250.828665" y="56.508271" style="fill: #ff0000"/>
     <use xlink:href="#m911e492baf" x="251.313475" y="57.684456" style="fill: #ff0000"/>
     <use xlink:href="#m911e492baf" x="251.798285" y="58.93171" style="fill: #ff0000"/>
     <use xlink:href="#m911e492baf" x="252.283094" y="60.248911" style="fill: #ff0000"/>
     <use xlink:href="#m911e492baf" x="252.767904" y="61.634873" style="fill: #ff0000"/>
     <use xlink:href="#m911e492baf" x="253.252713" y="63.088349" style="fill: #ff0000"/>
     <use xlink:href="#m911e492baf" x="253.737523" y="64.608031" style="fill: #ff0000"/>
     <use xlink:href="#m911e492baf" x="254.222333" y="66.192551" style="fill: #ff0000"/>
     <use xlink:href="#m911e492baf" x="254.707142" y="67.840484" style="fill: #ff0000"/>
     <use xlink:href="#m911e492baf" x="255.191952" y="69.550346" style="fill: #ff0000"/>
     <use xlink:href="#m911e492baf" x="255.676762" y="71.320599" style="fill: #ff0000"/>
     <use xlink:href="#m911e492baf" x="256.161571" y="73.149649" style="fill: #ff0000"/>
     <use xlink:href="#m911e492baf" x="256.646381" y="75.03585" style="fill: #ff0000"/>
     <use xlink:href="#m911e492baf" x="257.13119" y="76.977505" style="fill: #ff0000"/>
     <use xlink:href="#m911e492baf" x="257.616" y="78.972867" style="fill: #ff0000"/>
    </g>
   </g>
  </g>
 </g>
 <defs>
  <clipPath id="ped8fa57286">
   <rect x="3.6" y="3.6" width="266.112" height="266.112"/>
  </clipPath>
 </defs>
</svg>
