<?xml version="1.0" encoding="utf-8" standalone="no"?>
<!DOCTYPE svg PUBLIC "-//W3C//DTD SVG 1.1//EN"
  "http://www.w3.org/Graphics/SVG/1.1/DTD/svg11.dtd">
<svg xmlns:xlink="http://www.w3.org/1999/xlink" width="273.312pt" height="273.312pt" viewBox="0 0 273.312 273.312" xmlns="http://www.w3.org/2000/svg" version="1.1">
 <metadata>
  <rdf:RDF xmlns:dc="http://purl.org/dc/elements/1.1/" xmlns:cc="http://creativecommons.org/ns#" xmlns:rdf="http://www.w3.org/1999/02/22-rdf-syntax-ns#">
   <cc:Work>
    <dc:type rdf:resource="http://purl.org/dc/dcmitype/StillImage"/>
    <dc:date>2023-10-26T12:21:15.715482</dc:date>
    <dc:format>image/svg+xml</dc:format>
    <dc:creator>
     <cc:Agent>
      <dc:title>Matplotlib v3.8.0, https://matplotlib.org/</dc:title>
     </cc:Agent>
    </dc:creator>
   </cc:Work>
  </rdf:RDF>
 </metadata>
 <defs>
  <style type="text/css">*{stroke-linejoin: round; stroke-linecap: butt}</style>
 </defs>
 <g id="figure_1">
  <g id="patch_1">
   <path d="M 0 273.312 
L 273.312 273.312 
L 273.312 0 
L 0 0 
z
" style="fill: #ffffff"/>
  </g>
  <g id="axes_1">
   <g id="line2d_1">
    <path d="M 15.696 132.914361 
L 20.544096 96.234873 
L 23.452954 75.76077 
L 25.877002 60.175804 
L 27.81624 48.928925 
L 29.755479 38.943801 
L 31.209908 32.370119 
L 32.664337 26.640583 
L 34.118766 21.80157 
L 35.573194 17.892251 
L 36.542814 15.818478 
L 37.512433 14.179591 
L 38.482052 12.981486 
L 39.451671 12.228475 
L 40.421291 11.92327 
L 40.9061 11.939 
L 41.875719 12.307056 
L 42.845339 13.122634 
L 43.814958 14.382799 
L 44.784577 16.083016 
L 45.754196 18.217164 
L 46.723816 20.777565 
L 48.178244 25.39682 
L 49.632673 30.916666 
L 51.087102 37.292423 
L 53.026341 47.034702 
L 54.965579 58.065979 
L 57.389627 73.424439 
L 60.298485 93.696359 
L 64.176962 122.764805 
L 71.933916 181.578629 
L 74.842774 201.686553 
L 77.266822 216.863663 
L 79.20606 227.72348 
L 81.145299 237.273498 
L 82.599727 243.493062 
L 84.054156 248.847831 
L 85.508585 253.294459 
L 86.478204 255.736268 
L 87.447824 257.749518 
L 88.417443 259.326961 
L 89.387062 260.462921 
L 90.356681 261.153311 
L 91.326301 261.395644 
L 91.81111 261.348454 
L 92.780729 260.917573 
L 93.750349 260.039485 
L 94.719968 258.717349 
L 95.689587 256.955925 
L 96.659206 254.76155 
L 97.628826 252.142123 
L 99.083255 247.437042 
L 100.537683 241.835239 
L 101.992112 235.382059 
L 103.931351 225.54468 
L 105.870589 214.428838 
L 108.294637 198.981329 
L 111.203495 178.629558 
L 115.081972 149.504507 
L 122.354116 94.25639 
L 125.262974 73.938914 
L 127.687022 58.529713 
L 129.626261 47.450281 
L 131.565499 37.653871 
L 133.019928 31.234058 
L 134.474357 25.667587 
L 135.928786 20.999516 
L 137.383214 17.26763 
L 138.352834 15.315046 
L 139.322453 13.799158 
L 140.292072 12.725422 
L 141.261691 12.097703 
L 142.231311 11.918259 
L 143.20093 12.187736 
L 144.170549 12.905165 
L 145.140168 14.067963 
L 146.109788 15.671945 
L 147.079407 17.711339 
L 148.049026 20.178806 
L 149.503455 24.662803 
L 150.957884 30.053332 
L 152.412313 36.306761 
L 154.351551 45.898508 
L 156.29079 56.795595 
L 158.714838 72.012214 
L 161.138886 88.680592 
L 164.532553 113.737735 
L 174.713555 190.376314 
L 177.137603 206.596798 
L 179.561651 221.246561 
L 181.50089 231.612986 
L 183.440128 240.613671 
L 184.894557 246.389249 
L 186.348986 251.276588 
L 187.803415 255.236127 
L 188.773034 257.34423 
L 189.742653 259.017985 
L 190.712273 260.25137 
L 191.681892 261.039945 
L 192.651511 261.380872 
L 193.136321 261.383021 
L 194.10594 261.05068 
L 195.075559 260.270653 
L 196.045178 259.045747 
L 197.014798 257.38037 
L 197.984417 255.280515 
L 198.954036 252.75374 
L 200.408465 248.183407 
L 201.862894 242.710312 
L 203.317323 236.378756 
L 205.256561 226.690831 
L 207.1958 215.70796 
L 209.619848 200.400592 
L 212.043896 183.661658 
L 215.437563 158.542588 
L 225.133756 85.378915 
L 227.557804 68.961589 
L 229.981852 54.064534 
L 231.92109 43.467649 
L 233.860329 34.211068 
L 235.314758 28.229075 
L 236.769186 23.124747 
L 238.223615 18.939402 
L 239.193234 16.676763 
L 240.162854 14.845919 
L 241.132473 13.453461 
L 242.102092 12.504398 
L 243.071711 12.002147 
L 244.041331 11.948515 
L 245.01095 12.343696 
L 245.980569 13.186266 
L 246.950188 14.473195 
L 247.919808 16.199849 
L 248.889427 18.360015 
L 249.859046 20.94592 
L 251.313475 25.602266 
L 252.767904 31.15754 
L 254.222333 37.566776 
L 256.161571 47.350193 
L 257.616 55.539095 
L 257.616 55.539095 
" clip-path="url(#pba3e798a0c)" style="fill: none; stroke: #00bfbf; stroke-linecap: square"/>
    <defs>
     <path id="m593ed8a622" d="M -0.49999 0.49999 
L 0.50001 0.49999 
L 0.50001 -0.50001 
L -0.49999 -0.50001 
z
"/>
    </defs>
    <g clip-path="url(#pba3e798a0c)">
     <use xlink:href="#m593ed8a622" x="15.696" y="132.914361" style="fill: #00bfbf"/>
     <use xlink:href="#m593ed8a622" x="16.18081" y="129.17609" style="fill: #00bfbf"/>
     <use xlink:href="#m593ed8a622" x="16.665619" y="125.44455" style="fill: #00bfbf"/>
     <use xlink:href="#m593ed8a622" x="17.150429" y="121.723099" style="fill: #00bfbf"/>
     <use xlink:href="#m593ed8a622" x="17.635238" y="118.015087" style="fill: #00bfbf"/>
     <use xlink:href="#m593ed8a622" x="18.120048" y="114.323851" style="fill: #00bfbf"/>
     <use xlink:href="#m593ed8a622" x="18.604858" y="110.652712" style="fill: #00bfbf"/>
     <use xlink:href="#m593ed8a622" x="19.089667" y="107.004974" style="fill: #00bfbf"/>
     <use xlink:href="#m593ed8a622" x="19.574477" y="103.383921" style="fill: #00bfbf"/>
     <use xlink:href="#m593ed8a622" x="20.059287" y="99.792809" style="fill: #00bfbf"/>
     <use xlink:href="#m593ed8a622" x="20.544096" y="96.234873" style="fill: #00bfbf"/>
     <use xlink:href="#m593ed8a622" x="21.028906" y="92.713312" style="fill: #00bfbf"/>
     <use xlink:href="#m593ed8a622" x="21.513715" y="89.231297" style="fill: #00bfbf"/>
     <use xlink:href="#m593ed8a622" x="21.998525" y="85.791961" style="fill: #00bfbf"/>
     <use xlink:href="#m593ed8a622" x="22.483335" y="82.398399" style="fill: #00bfbf"/>
     <use xlink:href="#m593ed8a622" x="22.968144" y="79.053666" style="fill: #00bfbf"/>
     <use xlink:href="#m593ed8a622" x="23.452954" y="75.76077" style="fill: #00bfbf"/>
     <use xlink:href="#m593ed8a622" x="23.937764" y="72.522676" style="fill: #00bfbf"/>
     <use xlink:href="#m593ed8a622" x="24.422573" y="69.342298" style="fill: #00bfbf"/>
     <use xlink:href="#m593ed8a622" x="24.907383" y="66.222498" style="fill: #00bfbf"/>
     <use xlink:href="#m593ed8a622" x="25.392192" y="63.166083" style="fill: #00bfbf"/>
     <use xlink:href="#m593ed8a622" x="25.877002" y="60.175804" style="fill: #00bfbf"/>
     <use xlink:href="#m593ed8a622" x="26.361812" y="57.254352" style="fill: #00bfbf"/>
     <use xlink:href="#m593ed8a622" x="26.846621" y="54.404356" style="fill: #00bfbf"/>
     <use xlink:href="#m593ed8a622" x="27.331431" y="51.628381" style="fill: #00bfbf"/>
     <use xlink:href="#m593ed8a622" x="27.81624" y="48.928925" style="fill: #00bfbf"/>
     <use xlink:href="#m593ed8a622" x="28.30105" y="46.308418" style="fill: #00bfbf"/>
     <use xlink:href="#m593ed8a622" x="28.78586" y="43.769217" style="fill: #00bfbf"/>
     <use xlink:href="#m593ed8a622" x="29.270669" y="41.313608" style="fill: #00bfbf"/>
     <use xlink:href="#m593ed8a622" x="29.755479" y="38.943801" style="fill: #00bfbf"/>
     <use xlink:href="#m593ed8a622" x="30.240289" y="36.661929" style="fill: #00bfbf"/>
     <use xlink:href="#m593ed8a622" x="30.725098" y="34.470044" style="fill: #00bfbf"/>
     <use xlink:href="#m593ed8a622" x="31.209908" y="32.370119" style="fill: #00bfbf"/>
     <use xlink:href="#m593ed8a622" x="31.694717" y="30.364045" style="fill: #00bfbf"/>
     <use xlink:href="#m593ed8a622" x="32.179527" y="28.453627" style="fill: #00bfbf"/>
     <use xlink:href="#m593ed8a622" x="32.664337" y="26.640583" style="fill: #00bfbf"/>
     <use xlink:href="#m593ed8a622" x="33.149146" y="24.926546" style="fill: #00bfbf"/>
     <use xlink:href="#m593ed8a622" x="33.633956" y="23.313058" style="fill: #00bfbf"/>
     <use xlink:href="#m593ed8a622" x="34.118766" y="21.80157" style="fill: #00bfbf"/>
     <use xlink:href="#m593ed8a622" x="34.603575" y="20.393444" style="fill: #00bfbf"/>
     <use xlink:href="#m593ed8a622" x="35.088385" y="19.089947" style="fill: #00bfbf"/>
     <use xlink:href="#m593ed8a622" x="35.573194" y="17.892251" style="fill: #00bfbf"/>
     <use xlink:href="#m593ed8a622" x="36.058004" y="16.801434" style="fill: #00bfbf"/>
     <use xlink:href="#m593ed8a622" x="36.542814" y="15.818478" style="fill: #00bfbf"/>
     <use xlink:href="#m593ed8a622" x="37.027623" y="14.944268" style="fill: #00bfbf"/>
     <use xlink:href="#m593ed8a622" x="37.512433" y="14.179591" style="fill: #00bfbf"/>
     <use xlink:href="#m593ed8a622" x="37.997242" y="13.525133" style="fill: #00bfbf"/>
     <use xlink:href="#m593ed8a622" x="38.482052" y="12.981486" style="fill: #00bfbf"/>
     <use xlink:href="#m593ed8a622" x="38.966862" y="12.549137" style="fill: #00bfbf"/>
     <use xlink:href="#m593ed8a622" x="39.451671" y="12.228475" style="fill: #00bfbf"/>
     <use xlink:href="#m593ed8a622" x="39.936481" y="12.019791" style="fill: #00bfbf"/>
     <use xlink:href="#m593ed8a622" x="40.421291" y="11.92327" style="fill: #00bfbf"/>
     <use xlink:href="#m593ed8a622" x="40.9061" y="11.939" style="fill: #00bfbf"/>
     <use xlink:href="#m593ed8a622" x="41.39091" y="12.066967" style="fill: #00bfbf"/>
     <use xlink:href="#m593ed8a622" x="41.875719" y="12.307056" style="fill: #00bfbf"/>
     <use xlink:href="#m593ed8a622" x="42.360529" y="12.659051" style="fill: #00bfbf"/>
     <use xlink:href="#m593ed8a622" x="42.845339" y="13.122634" style="fill: #00bfbf"/>
     <use xlink:href="#m593ed8a622" x="43.330148" y="13.69739" style="fill: #00bfbf"/>
     <use xlink:href="#m593ed8a622" x="43.814958" y="14.382799" style="fill: #00bfbf"/>
     <use xlink:href="#m593ed8a622" x="44.299768" y="15.178247" style="fill: #00bfbf"/>
     <use xlink:href="#m593ed8a622" x="44.784577" y="16.083016" style="fill: #00bfbf"/>
     <use xlink:href="#m593ed8a622" x="45.269387" y="17.096292" style="fill: #00bfbf"/>
     <use xlink:href="#m593ed8a622" x="45.754196" y="18.217164" style="fill: #00bfbf"/>
     <use xlink:href="#m593ed8a622" x="46.239006" y="19.444624" style="fill: #00bfbf"/>
     <use xlink:href="#m593ed8a622" x="46.723816" y="20.777565" style="fill: #00bfbf"/>
     <use xlink:href="#m593ed8a622" x="47.208625" y="22.214789" style="fill: #00bfbf"/>
     <use xlink:href="#m593ed8a622" x="47.693435" y="23.755003" style="fill: #00bfbf"/>
     <use xlink:href="#m593ed8a622" x="48.178244" y="25.39682" style="fill: #00bfbf"/>
     <use xlink:href="#m593ed8a622" x="48.663054" y="27.138763" style="fill: #00bfbf"/>
     <use xlink:href="#m593ed8a622" x="49.147864" y="28.979264" style="fill: #00bfbf"/>
     <use xlink:href="#m593ed8a622" x="49.632673" y="30.916666" style="fill: #00bfbf"/>
     <use xlink:href="#m593ed8a622" x="50.117483" y="32.949227" style="fill: #00bfbf"/>
     <use xlink:href="#m593ed8a622" x="50.602293" y="35.075117" style="fill: #00bfbf"/>
     <use xlink:href="#m593ed8a622" x="51.087102" y="37.292423" style="fill: #00bfbf"/>
     <use xlink:href="#m593ed8a622" x="51.571912" y="39.599149" style="fill: #00bfbf"/>
     <use xlink:href="#m593ed8a622" x="52.056721" y="41.99322" style="fill: #00bfbf"/>
     <use xlink:href="#m593ed8a622" x="52.541531" y="44.472482" style="fill: #00bfbf"/>
     <use xlink:href="#m593ed8a622" x="53.026341" y="47.034702" style="fill: #00bfbf"/>
     <use xlink:href="#m593ed8a622" x="53.51115" y="49.677575" style="fill: #00bfbf"/>
     <use xlink:href="#m593ed8a622" x="53.99596" y="52.398723" style="fill: #00bfbf"/>
     <use xlink:href="#m593ed8a622" x="54.48077" y="55.195697" style="fill: #00bfbf"/>
     <use xlink:href="#m593ed8a622" x="54.965579" y="58.065979" style="fill: #00bfbf"/>
     <use xlink:href="#m593ed8a622" x="55.450389" y="61.006987" style="fill: #00bfbf"/>
     <use xlink:href="#m593ed8a622" x="55.935198" y="64.016075" style="fill: #00bfbf"/>
     <use xlink:href="#m593ed8a622" x="56.420008" y="67.090533" style="fill: #00bfbf"/>
     <use xlink:href="#m593ed8a622" x="56.904818" y="70.227596" style="fill: #00bfbf"/>
     <use xlink:href="#m593ed8a622" x="57.389627" y="73.424439" style="fill: #00bfbf"/>
     <use xlink:href="#m593ed8a622" x="57.874437" y="76.678187" style="fill: #00bfbf"/>
     <use xlink:href="#m593ed8a622" x="58.359246" y="79.985911" style="fill: #00bfbf"/>
     <use xlink:href="#m593ed8a622" x="58.844056" y="83.344634" style="fill: #00bfbf"/>
     <use xlink:href="#m593ed8a622" x="59.328866" y="86.751333" style="fill: #00bfbf"/>
     <use xlink:href="#m593ed8a622" x="59.813675" y="90.202944" style="fill: #00bfbf"/>
     <use xlink:href="#m593ed8a622" x="60.298485" y="93.696359" style="fill: #00bfbf"/>
     <use xlink:href="#m593ed8a622" x="60.783295" y="97.228435" style="fill: #00bfbf"/>
     <use xlink:href="#m593ed8a622" x="61.268104" y="100.795993" style="fill: #00bfbf"/>
     <use xlink:href="#m593ed8a622" x="61.752914" y="104.395822" style="fill: #00bfbf"/>
     <use xlink:href="#m593ed8a622" x="62.237723" y="108.024684" style="fill: #00bfbf"/>
     <use xlink:href="#m593ed8a622" x="62.722533" y="111.679312" style="fill: #00bfbf"/>
     <use xlink:href="#m593ed8a622" x="63.207343" y="115.356417" style="fill: #00bfbf"/>
     <use xlink:href="#m593ed8a622" x="63.692152" y="119.05269" style="fill: #00bfbf"/>
     <use xlink:href="#m593ed8a622" x="64.176962" y="122.764805" style="fill: #00bfbf"/>
     <use xlink:href="#m593ed8a622" x="64.661772" y="126.489422" style="fill: #00bfbf"/>
     <use xlink:href="#m593ed8a622" x="65.146581" y="130.223187" style="fill: #00bfbf"/>
     <use xlink:href="#m593ed8a622" x="65.631391" y="133.962742" style="fill: #00bfbf"/>
     <use xlink:href="#m593ed8a622" x="66.1162" y="137.70472" style="fill: #00bfbf"/>
     <use xlink:href="#m593ed8a622" x="66.60101" y="141.445755" style="fill: #00bfbf"/>
     <use xlink:href="#m593ed8a622" x="67.08582" y="145.182479" style="fill: #00bfbf"/>
     <use xlink:href="#m593ed8a622" x="67.570629" y="148.91153" style="fill: #00bfbf"/>
     <use xlink:href="#m593ed8a622" x="68.055439" y="152.629551" style="fill: #00bfbf"/>
     <use xlink:href="#m593ed8a622" x="68.540248" y="156.333198" style="fill: #00bfbf"/>
     <use xlink:href="#m593ed8a622" x="69.025058" y="160.019136" style="fill: #00bfbf"/>
     <use xlink:href="#m593ed8a622" x="69.509868" y="163.68405" style="fill: #00bfbf"/>
     <use xlink:href="#m593ed8a622" x="69.994677" y="167.324639" style="fill: #00bfbf"/>
     <use xlink:href="#m593ed8a622" x="70.479487" y="170.937629" style="fill: #00bfbf"/>
     <use xlink:href="#m593ed8a622" x="70.964297" y="174.519768" style="fill: #00bfbf"/>
     <use xlink:href="#m593ed8a622" x="71.449106" y="178.067832" style="fill: #00bfbf"/>
     <use xlink:href="#m593ed8a622" x="71.933916" y="181.578629" style="fill: #00bfbf"/>
     <use xlink:href="#m593ed8a622" x="72.418725" y="185.048998" style="fill: #00bfbf"/>
     <use xlink:href="#m593ed8a622" x="72.903535" y="188.475816" style="fill: #00bfbf"/>
     <use xlink:href="#m593ed8a622" x="73.388345" y="191.856" style="fill: #00bfbf"/>
     <use xlink:href="#m593ed8a622" x="73.873154" y="195.186508" style="fill: #00bfbf"/>
     <use xlink:href="#m593ed8a622" x="74.357964" y="198.464342" style="fill: #00bfbf"/>
     <use xlink:href="#m593ed8a622" x="74.842774" y="201.686553" style="fill: #00bfbf"/>
     <use xlink:href="#m593ed8a622" x="75.327583" y="204.850241" style="fill: #00bfbf"/>
     <use xlink:href="#m593ed8a622" x="75.812393" y="207.952559" style="fill: #00bfbf"/>
     <use xlink:href="#m593ed8a622" x="76.297202" y="210.990714" style="fill: #00bfbf"/>
     <use xlink:href="#m593ed8a622" x="76.782012" y="213.961974" style="fill: #00bfbf"/>
     <use xlink:href="#m593ed8a622" x="77.266822" y="216.863663" style="fill: #00bfbf"/>
     <use xlink:href="#m593ed8a622" x="77.751631" y="219.693171" style="fill: #00bfbf"/>
     <use xlink:href="#m593ed8a622" x="78.236441" y="222.447951" style="fill: #00bfbf"/>
     <use xlink:href="#m593ed8a622" x="78.721251" y="225.125524" style="fill: #00bfbf"/>
     <use xlink:href="#m593ed8a622" x="79.20606" y="227.72348" style="fill: #00bfbf"/>
     <use xlink:href="#m593ed8a622" x="79.69087" y="230.239482" style="fill: #00bfbf"/>
     <use xlink:href="#m593ed8a622" x="80.175679" y="232.671265" style="fill: #00bfbf"/>
     <use xlink:href="#m593ed8a622" x="80.660489" y="235.01664" style="fill: #00bfbf"/>
     <use xlink:href="#m593ed8a622" x="81.145299" y="237.273498" style="fill: #00bfbf"/>
     <use xlink:href="#m593ed8a622" x="81.630108" y="239.439807" style="fill: #00bfbf"/>
     <use xlink:href="#m593ed8a622" x="82.114918" y="241.513617" style="fill: #00bfbf"/>
     <use xlink:href="#m593ed8a622" x="82.599727" y="243.493062" style="fill: #00bfbf"/>
     <use xlink:href="#m593ed8a622" x="83.084537" y="245.376362" style="fill: #00bfbf"/>
     <use xlink:href="#m593ed8a622" x="83.569347" y="247.16182" style="fill: #00bfbf"/>
     <use xlink:href="#m593ed8a622" x="84.054156" y="248.847831" style="fill: #00bfbf"/>
     <use xlink:href="#m593ed8a622" x="84.538966" y="250.432876" style="fill: #00bfbf"/>
     <use xlink:href="#m593ed8a622" x="85.023776" y="251.91553" style="fill: #00bfbf"/>
     <use xlink:href="#m593ed8a622" x="85.508585" y="253.294459" style="fill: #00bfbf"/>
     <use xlink:href="#m593ed8a622" x="85.993395" y="254.56842" style="fill: #00bfbf"/>
     <use xlink:href="#m593ed8a622" x="86.478204" y="255.736268" style="fill: #00bfbf"/>
     <use xlink:href="#m593ed8a622" x="86.963014" y="256.796952" style="fill: #00bfbf"/>
     <use xlink:href="#m593ed8a622" x="87.447824" y="257.749518" style="fill: #00bfbf"/>
     <use xlink:href="#m593ed8a622" x="87.932633" y="258.593107" style="fill: #00bfbf"/>
     <use xlink:href="#m593ed8a622" x="88.417443" y="259.326961" style="fill: #00bfbf"/>
     <use xlink:href="#m593ed8a622" x="88.902253" y="259.95042" style="fill: #00bfbf"/>
     <use xlink:href="#m593ed8a622" x="89.387062" y="260.462921" style="fill: #00bfbf"/>
     <use xlink:href="#m593ed8a622" x="89.871872" y="260.864005" style="fill: #00bfbf"/>
     <use xlink:href="#m593ed8a622" x="90.356681" y="261.153311" style="fill: #00bfbf"/>
     <use xlink:href="#m593ed8a622" x="90.841491" y="261.330577" style="fill: #00bfbf"/>
     <use xlink:href="#m593ed8a622" x="91.326301" y="261.395644" style="fill: #00bfbf"/>
     <use xlink:href="#m593ed8a622" x="91.81111" y="261.348454" style="fill: #00bfbf"/>
     <use xlink:href="#m593ed8a622" x="92.29592" y="261.189049" style="fill: #00bfbf"/>
     <use xlink:href="#m593ed8a622" x="92.780729" y="260.917573" style="fill: #00bfbf"/>
     <use xlink:href="#m593ed8a622" x="93.265539" y="260.53427" style="fill: #00bfbf"/>
     <use xlink:href="#m593ed8a622" x="93.750349" y="260.039485" style="fill: #00bfbf"/>
     <use xlink:href="#m593ed8a622" x="94.235158" y="259.433663" style="fill: #00bfbf"/>
     <use xlink:href="#m593ed8a622" x="94.719968" y="258.717349" style="fill: #00bfbf"/>
     <use xlink:href="#m593ed8a622" x="95.204778" y="257.891189" style="fill: #00bfbf"/>
     <use xlink:href="#m593ed8a622" x="95.689587" y="256.955925" style="fill: #00bfbf"/>
     <use xlink:href="#m593ed8a622" x="96.174397" y="255.912399" style="fill: #00bfbf"/>
     <use xlink:href="#m593ed8a622" x="96.659206" y="254.76155" style="fill: #00bfbf"/>
     <use xlink:href="#m593ed8a622" x="97.144016" y="253.504415" style="fill: #00bfbf"/>
     <use xlink:href="#m593ed8a622" x="97.628826" y="252.142123" style="fill: #00bfbf"/>
     <use xlink:href="#m593ed8a622" x="98.113635" y="250.675902" style="fill: #00bfbf"/>
     <use xlink:href="#m593ed8a622" x="98.598445" y="249.107071" style="fill: #00bfbf"/>
     <use xlink:href="#m593ed8a622" x="99.083255" y="247.437042" style="fill: #00bfbf"/>
     <use xlink:href="#m593ed8a622" x="99.568064" y="245.667317" style="fill: #00bfbf"/>
     <use xlink:href="#m593ed8a622" x="100.052874" y="243.799489" style="fill: #00bfbf"/>
     <use xlink:href="#m593ed8a622" x="100.537683" y="241.835239" style="fill: #00bfbf"/>
     <use xlink:href="#m593ed8a622" x="101.022493" y="239.776335" style="fill: #00bfbf"/>
     <use xlink:href="#m593ed8a622" x="101.507303" y="237.62463" style="fill: #00bfbf"/>
     <use xlink:href="#m593ed8a622" x="101.992112" y="235.382059" style="fill: #00bfbf"/>
     <use xlink:href="#m593ed8a622" x="102.476922" y="233.050642" style="fill: #00bfbf"/>
     <use xlink:href="#m593ed8a622" x="102.961731" y="230.632476" style="fill: #00bfbf"/>
     <use xlink:href="#m593ed8a622" x="103.446541" y="228.129738" style="fill: #00bfbf"/>
     <use xlink:href="#m593ed8a622" x="103.931351" y="225.54468" style="fill: #00bfbf"/>
     <use xlink:href="#m593ed8a622" x="104.41616" y="222.879627" style="fill: #00bfbf"/>
     <use xlink:href="#m593ed8a622" x="104.90097" y="220.13698" style="fill: #00bfbf"/>
     <use xlink:href="#m593ed8a622" x="105.38578" y="217.319205" style="fill: #00bfbf"/>
     <use xlink:href="#m593ed8a622" x="105.870589" y="214.428838" style="fill: #00bfbf"/>
     <use xlink:href="#m593ed8a622" x="106.355399" y="211.468482" style="fill: #00bfbf"/>
     <use xlink:href="#m593ed8a622" x="106.840208" y="208.440799" style="fill: #00bfbf"/>
     <use xlink:href="#m593ed8a622" x="107.325018" y="205.348515" style="fill: #00bfbf"/>
     <use xlink:href="#m593ed8a622" x="107.809828" y="202.194412" style="fill: #00bfbf"/>
     <use xlink:href="#m593ed8a622" x="108.294637" y="198.981329" style="fill: #00bfbf"/>
     <use xlink:href="#m593ed8a622" x="108.779447" y="195.712157" style="fill: #00bfbf"/>
     <use xlink:href="#m593ed8a622" x="109.264257" y="192.389839" style="fill: #00bfbf"/>
     <use xlink:href="#m593ed8a622" x="109.749066" y="189.017364" style="fill: #00bfbf"/>
     <use xlink:href="#m593ed8a622" x="110.233876" y="185.597767" style="fill: #00bfbf"/>
     <use xlink:href="#m593ed8a622" x="110.718685" y="182.134126" style="fill: #00bfbf"/>
     <use xlink:href="#m593ed8a622" x="111.203495" y="178.629558" style="fill: #00bfbf"/>
     <use xlink:href="#m593ed8a622" x="111.688305" y="175.087216" style="fill: #00bfbf"/>
     <use xlink:href="#m593ed8a622" x="112.173114" y="171.510289" style="fill: #00bfbf"/>
     <use xlink:href="#m593ed8a622" x="112.657924" y="167.901996" style="fill: #00bfbf"/>
     <use xlink:href="#m593ed8a622" x="113.142733" y="164.265583" style="fill: #00bfbf"/>
     <use xlink:href="#m593ed8a622" x="113.627543" y="160.604323" style="fill: #00bfbf"/>
     <use xlink:href="#m593ed8a622" x="114.112353" y="156.921512" style="fill: #00bfbf"/>
     <use xlink:href="#m593ed8a622" x="114.597162" y="153.220463" style="fill: #00bfbf"/>
     <use xlink:href="#m593ed8a622" x="115.081972" y="149.504507" style="fill: #00bfbf"/>
     <use xlink:href="#m593ed8a622" x="115.566782" y="145.776988" style="fill: #00bfbf"/>
     <use xlink:href="#m593ed8a622" x="116.051591" y="142.041261" style="fill: #00bfbf"/>
     <use xlink:href="#m593ed8a622" x="116.536401" y="138.300688" style="fill: #00bfbf"/>
     <use xlink:href="#m593ed8a622" x="117.02121" y="134.558634" style="fill: #00bfbf"/>
     <use xlink:href="#m593ed8a622" x="117.50602" y="130.818468" style="fill: #00bfbf"/>
     <use xlink:href="#m593ed8a622" x="117.99083" y="127.083555" style="fill: #00bfbf"/>
     <use xlink:href="#m593ed8a622" x="118.475639" y="123.357257" style="fill: #00bfbf"/>
     <use xlink:href="#m593ed8a622" x="118.960449" y="119.642927" style="fill: #00bfbf"/>
     <use xlink:href="#m593ed8a622" x="119.445259" y="115.943908" style="fill: #00bfbf"/>
     <use xlink:href="#m593ed8a622" x="119.930068" y="112.263528" style="fill: #00bfbf"/>
     <use xlink:href="#m593ed8a622" x="120.414878" y="108.605099" style="fill: #00bfbf"/>
     <use xlink:href="#m593ed8a622" x="120.899687" y="104.971915" style="fill: #00bfbf"/>
     <use xlink:href="#m593ed8a622" x="121.384497" y="101.367244" style="fill: #00bfbf"/>
     <use xlink:href="#m593ed8a622" x="121.869307" y="97.79433" style="fill: #00bfbf"/>
     <use xlink:href="#m593ed8a622" x="122.354116" y="94.25639" style="fill: #00bfbf"/>
     <use xlink:href="#m593ed8a622" x="122.838926" y="90.756606" style="fill: #00bfbf"/>
     <use xlink:href="#m593ed8a622" x="123.323735" y="87.298128" style="fill: #00bfbf"/>
     <use xlink:href="#m593ed8a622" x="123.808545" y="83.88407" style="fill: #00bfbf"/>
     <use xlink:href="#m593ed8a622" x="124.293355" y="80.517502" style="fill: #00bfbf"/>
     <use xlink:href="#m593ed8a622" x="124.778164" y="77.201456" style="fill: #00bfbf"/>
     <use xlink:href="#m593ed8a622" x="125.262974" y="73.938914" style="fill: #00bfbf"/>
     <use xlink:href="#m593ed8a622" x="125.747784" y="70.732814" style="fill: #00bfbf"/>
     <use xlink:href="#m593ed8a622" x="126.232593" y="67.58604" style="fill: #00bfbf"/>
     <use xlink:href="#m593ed8a622" x="126.717403" y="64.501424" style="fill: #00bfbf"/>
     <use xlink:href="#m593ed8a622" x="127.202212" y="61.481742" style="fill: #00bfbf"/>
     <use xlink:href="#m593ed8a622" x="127.687022" y="58.529713" style="fill: #00bfbf"/>
     <use xlink:href="#m593ed8a622" x="128.171832" y="55.647991" style="fill: #00bfbf"/>
     <use xlink:href="#m593ed8a622" x="128.656641" y="52.839172" style="fill: #00bfbf"/>
     <use xlink:href="#m593ed8a622" x="129.141451" y="50.105782" style="fill: #00bfbf"/>
     <use xlink:href="#m593ed8a622" x="129.626261" y="47.450281" style="fill: #00bfbf"/>
     <use xlink:href="#m593ed8a622" x="130.11107" y="44.875059" style="fill: #00bfbf"/>
     <use xlink:href="#m593ed8a622" x="130.59588" y="42.382434" style="fill: #00bfbf"/>
     <use xlink:href="#m593ed8a622" x="131.080689" y="39.974649" style="fill: #00bfbf"/>
     <use xlink:href="#m593ed8a622" x="131.565499" y="37.653871" style="fill: #00bfbf"/>
     <use xlink:href="#m593ed8a622" x="132.050309" y="35.422187" style="fill: #00bfbf"/>
     <use xlink:href="#m593ed8a622" x="132.535118" y="33.281608" style="fill: #00bfbf"/>
     <use xlink:href="#m593ed8a622" x="133.019928" y="31.234058" style="fill: #00bfbf"/>
     <use xlink:href="#m593ed8a622" x="133.504737" y="29.281381" style="fill: #00bfbf"/>
     <use xlink:href="#m593ed8a622" x="133.989547" y="27.425334" style="fill: #00bfbf"/>
     <use xlink:href="#m593ed8a622" x="134.474357" y="25.667587" style="fill: #00bfbf"/>
     <use xlink:href="#m593ed8a622" x="134.959166" y="24.009723" style="fill: #00bfbf"/>
     <use xlink:href="#m593ed8a622" x="135.443976" y="22.453232" style="fill: #00bfbf"/>
     <use xlink:href="#m593ed8a622" x="135.928786" y="20.999516" style="fill: #00bfbf"/>
     <use xlink:href="#m593ed8a622" x="136.413595" y="19.649883" style="fill: #00bfbf"/>
     <use xlink:href="#m593ed8a622" x="136.898405" y="18.405548" style="fill: #00bfbf"/>
     <use xlink:href="#m593ed8a622" x="137.383214" y="17.26763" style="fill: #00bfbf"/>
     <use xlink:href="#m593ed8a622" x="137.868024" y="16.237153" style="fill: #00bfbf"/>
     <use xlink:href="#m593ed8a622" x="138.352834" y="15.315046" style="fill: #00bfbf"/>
     <use xlink:href="#m593ed8a622" x="138.837643" y="14.502137" style="fill: #00bfbf"/>
     <use xlink:href="#m593ed8a622" x="139.322453" y="13.799158" style="fill: #00bfbf"/>
     <use xlink:href="#m593ed8a622" x="139.807263" y="13.206742" style="fill: #00bfbf"/>
     <use xlink:href="#m593ed8a622" x="140.292072" y="12.725422" style="fill: #00bfbf"/>
     <use xlink:href="#m593ed8a622" x="140.776882" y="12.355632" style="fill: #00bfbf"/>
     <use xlink:href="#m593ed8a622" x="141.261691" y="12.097703" style="fill: #00bfbf"/>
     <use xlink:href="#m593ed8a622" x="141.746501" y="11.951868" style="fill: #00bfbf"/>
     <use xlink:href="#m593ed8a622" x="142.231311" y="11.918259" style="fill: #00bfbf"/>
     <use xlink:href="#m593ed8a622" x="142.71612" y="11.996905" style="fill: #00bfbf"/>
     <use xlink:href="#m593ed8a622" x="143.20093" y="12.187736" style="fill: #00bfbf"/>
     <use xlink:href="#m593ed8a622" x="143.685739" y="12.49058" style="fill: #00bfbf"/>
     <use xlink:href="#m593ed8a622" x="144.170549" y="12.905165" style="fill: #00bfbf"/>
     <use xlink:href="#m593ed8a622" x="144.655359" y="13.431117" style="fill: #00bfbf"/>
     <use xlink:href="#m593ed8a622" x="145.140168" y="14.067963" style="fill: #00bfbf"/>
     <use xlink:href="#m593ed8a622" x="145.624978" y="14.81513" style="fill: #00bfbf"/>
     <use xlink:href="#m593ed8a622" x="146.109788" y="15.671945" style="fill: #00bfbf"/>
     <use xlink:href="#m593ed8a622" x="146.594597" y="16.637638" style="fill: #00bfbf"/>
     <use xlink:href="#m593ed8a622" x="147.079407" y="17.711339" style="fill: #00bfbf"/>
     <use xlink:href="#m593ed8a622" x="147.564216" y="18.892083" style="fill: #00bfbf"/>
     <use xlink:href="#m593ed8a622" x="148.049026" y="20.178806" style="fill: #00bfbf"/>
     <use xlink:href="#m593ed8a622" x="148.533836" y="21.570351" style="fill: #00bfbf"/>
     <use xlink:href="#m593ed8a622" x="149.018645" y="23.065465" style="fill: #00bfbf"/>
     <use xlink:href="#m593ed8a622" x="149.503455" y="24.662803" style="fill: #00bfbf"/>
     <use xlink:href="#m593ed8a622" x="149.988265" y="26.360927" style="fill: #00bfbf"/>
     <use xlink:href="#m593ed8a622" x="150.473074" y="28.158309" style="fill: #00bfbf"/>
     <use xlink:href="#m593ed8a622" x="150.957884" y="30.053332" style="fill: #00bfbf"/>
     <use xlink:href="#m593ed8a622" x="151.442693" y="32.04429" style="fill: #00bfbf"/>
     <use xlink:href="#m593ed8a622" x="151.927503" y="34.129392" style="fill: #00bfbf"/>
     <use xlink:href="#m593ed8a622" x="152.412313" y="36.306761" style="fill: #00bfbf"/>
     <use xlink:href="#m593ed8a622" x="152.897122" y="38.574437" style="fill: #00bfbf"/>
     <use xlink:href="#m593ed8a622" x="153.381932" y="40.93038" style="fill: #00bfbf"/>
     <use xlink:href="#m593ed8a622" x="153.866741" y="43.372469" style="fill: #00bfbf"/>
     <use xlink:href="#m593ed8a622" x="154.351551" y="45.898508" style="fill: #00bfbf"/>
     <use xlink:href="#m593ed8a622" x="154.836361" y="48.506222" style="fill: #00bfbf"/>
     <use xlink:href="#m593ed8a622" x="155.32117" y="51.193265" style="fill: #00bfbf"/>
     <use xlink:href="#m593ed8a622" x="155.80598" y="53.957218" style="fill: #00bfbf"/>
     <use xlink:href="#m593ed8a622" x="156.29079" y="56.795595" style="fill: #00bfbf"/>
     <use xlink:href="#m593ed8a622" x="156.775599" y="59.705841" style="fill: #00bfbf"/>
     <use xlink:href="#m593ed8a622" x="157.260409" y="62.685337" style="fill: #00bfbf"/>
     <use xlink:href="#m593ed8a622" x="157.745218" y="65.731401" style="fill: #00bfbf"/>
     <use xlink:href="#m593ed8a622" x="158.230028" y="68.841293" style="fill: #00bfbf"/>
     <use xlink:href="#m593ed8a622" x="158.714838" y="72.012214" style="fill: #00bfbf"/>
     <use xlink:href="#m593ed8a622" x="159.199647" y="75.241309" style="fill: #00bfbf"/>
     <use xlink:href="#m593ed8a622" x="159.684457" y="78.525674" style="fill: #00bfbf"/>
     <use xlink:href="#m593ed8a622" x="160.169267" y="81.862352" style="fill: #00bfbf"/>
     <use xlink:href="#m593ed8a622" x="160.654076" y="85.24834" style="fill: #00bfbf"/>
     <use xlink:href="#m593ed8a622" x="161.138886" y="88.680592" style="fill: #00bfbf"/>
     <use xlink:href="#m593ed8a622" x="161.623695" y="92.156019" style="fill: #00bfbf"/>
     <use xlink:href="#m593ed8a622" x="162.108505" y="95.671492" style="fill: #00bfbf"/>
     <use xlink:href="#m593ed8a622" x="162.593315" y="99.223849" style="fill: #00bfbf"/>
     <use xlink:href="#m593ed8a622" x="163.078124" y="102.809892" style="fill: #00bfbf"/>
     <use xlink:href="#m593ed8a622" x="163.562934" y="106.426395" style="fill: #00bfbf"/>
     <use xlink:href="#m593ed8a622" x="164.047743" y="110.070102" style="fill: #00bfbf"/>
     <use xlink:href="#m593ed8a622" x="164.532553" y="113.737735" style="fill: #00bfbf"/>
     <use xlink:href="#m593ed8a622" x="165.017363" y="117.425992" style="fill: #00bfbf"/>
     <use xlink:href="#m593ed8a622" x="165.502172" y="121.131555" style="fill: #00bfbf"/>
     <use xlink:href="#m593ed8a622" x="165.986982" y="124.851089" style="fill: #00bfbf"/>
     <use xlink:href="#m593ed8a622" x="166.471792" y="128.581247" style="fill: #00bfbf"/>
     <use xlink:href="#m593ed8a622" x="166.956601" y="132.318672" style="fill: #00bfbf"/>
     <use xlink:href="#m593ed8a622" x="167.441411" y="136.059999" style="fill: #00bfbf"/>
     <use xlink:href="#m593ed8a622" x="167.92622" y="139.801864" style="fill: #00bfbf"/>
     <use xlink:href="#m593ed8a622" x="168.41103" y="143.540897" style="fill: #00bfbf"/>
     <use xlink:href="#m593ed8a622" x="168.89584" y="147.273734" style="fill: #00bfbf"/>
     <use xlink:href="#m593ed8a622" x="169.380649" y="150.997016" style="fill: #00bfbf"/>
     <use xlink:href="#m593ed8a622" x="169.865459" y="154.707392" style="fill: #00bfbf"/>
     <use xlink:href="#m593ed8a622" x="170.350269" y="158.401523" style="fill: #00bfbf"/>
     <use xlink:href="#m593ed8a622" x="170.835078" y="162.076084" style="fill: #00bfbf"/>
     <use xlink:href="#m593ed8a622" x="171.319888" y="165.727769" style="fill: #00bfbf"/>
     <use xlink:href="#m593ed8a622" x="171.804697" y="169.353292" style="fill: #00bfbf"/>
     <use xlink:href="#m593ed8a622" x="172.289507" y="172.949389" style="fill: #00bfbf"/>
     <use xlink:href="#m593ed8a622" x="172.774317" y="176.512824" style="fill: #00bfbf"/>
     <use xlink:href="#m593ed8a622" x="173.259126" y="180.040391" style="fill: #00bfbf"/>
     <use xlink:href="#m593ed8a622" x="173.743936" y="183.528915" style="fill: #00bfbf"/>
     <use xlink:href="#m593ed8a622" x="174.228745" y="186.975257" style="fill: #00bfbf"/>
     <use xlink:href="#m593ed8a622" x="174.713555" y="190.376314" style="fill: #00bfbf"/>
     <use xlink:href="#m593ed8a622" x="175.198365" y="193.729027" style="fill: #00bfbf"/>
     <use xlink:href="#m593ed8a622" x="175.683174" y="197.030378" style="fill: #00bfbf"/>
     <use xlink:href="#m593ed8a622" x="176.167984" y="200.277397" style="fill: #00bfbf"/>
     <use xlink:href="#m593ed8a622" x="176.652794" y="203.46716" style="fill: #00bfbf"/>
     <use xlink:href="#m593ed8a622" x="177.137603" y="206.596798" style="fill: #00bfbf"/>
     <use xlink:href="#m593ed8a622" x="177.622413" y="209.663493" style="fill: #00bfbf"/>
     <use xlink:href="#m593ed8a622" x="178.107222" y="212.664487" style="fill: #00bfbf"/>
     <use xlink:href="#m593ed8a622" x="178.592032" y="215.597079" style="fill: #00bfbf"/>
     <use xlink:href="#m593ed8a622" x="179.076842" y="218.458628" style="fill: #00bfbf"/>
     <use xlink:href="#m593ed8a622" x="179.561651" y="221.246561" style="fill: #00bfbf"/>
     <use xlink:href="#m593ed8a622" x="180.046461" y="223.958369" style="fill: #00bfbf"/>
     <use xlink:href="#m593ed8a622" x="180.531271" y="226.591609" style="fill: #00bfbf"/>
     <use xlink:href="#m593ed8a622" x="181.01608" y="229.143914" style="fill: #00bfbf"/>
     <use xlink:href="#m593ed8a622" x="181.50089" y="231.612986" style="fill: #00bfbf"/>
     <use xlink:href="#m593ed8a622" x="181.985699" y="233.996603" style="fill: #00bfbf"/>
     <use xlink:href="#m593ed8a622" x="182.470509" y="236.292621" style="fill: #00bfbf"/>
     <use xlink:href="#m593ed8a622" x="182.955319" y="238.498972" style="fill: #00bfbf"/>
     <use xlink:href="#m593ed8a622" x="183.440128" y="240.613671" style="fill: #00bfbf"/>
     <use xlink:href="#m593ed8a622" x="183.924938" y="242.634815" style="fill: #00bfbf"/>
     <use xlink:href="#m593ed8a622" x="184.409747" y="244.560585" style="fill: #00bfbf"/>
     <use xlink:href="#m593ed8a622" x="184.894557" y="246.389249" style="fill: #00bfbf"/>
     <use xlink:href="#m593ed8a622" x="185.379367" y="248.11916" style="fill: #00bfbf"/>
     <use xlink:href="#m593ed8a622" x="185.864176" y="249.748762" style="fill: #00bfbf"/>
     <use xlink:href="#m593ed8a622" x="186.348986" y="251.276588" style="fill: #00bfbf"/>
     <use xlink:href="#m593ed8a622" x="186.833796" y="252.701263" style="fill: #00bfbf"/>
     <use xlink:href="#m593ed8a622" x="187.318605" y="254.021505" style="fill: #00bfbf"/>
     <use xlink:href="#m593ed8a622" x="187.803415" y="255.236127" style="fill: #00bfbf"/>
     <use xlink:href="#m593ed8a622" x="188.288224" y="256.344034" style="fill: #00bfbf"/>
     <use xlink:href="#m593ed8a622" x="188.773034" y="257.34423" style="fill: #00bfbf"/>
     <use xlink:href="#m593ed8a622" x="189.257844" y="258.235814" style="fill: #00bfbf"/>
     <use xlink:href="#m593ed8a622" x="189.742653" y="259.017985" style="fill: #00bfbf"/>
     <use xlink:href="#m593ed8a622" x="190.227463" y="259.690039" style="fill: #00bfbf"/>
     <use xlink:href="#m593ed8a622" x="190.712273" y="260.25137" style="fill: #00bfbf"/>
     <use xlink:href="#m593ed8a622" x="191.197082" y="260.701474" style="fill: #00bfbf"/>
     <use xlink:href="#m593ed8a622" x="191.681892" y="261.039945" style="fill: #00bfbf"/>
     <use xlink:href="#m593ed8a622" x="192.166701" y="261.266479" style="fill: #00bfbf"/>
     <use xlink:href="#m593ed8a622" x="192.651511" y="261.380872" style="fill: #00bfbf"/>
     <use xlink:href="#m593ed8a622" x="193.136321" y="261.383021" style="fill: #00bfbf"/>
     <use xlink:href="#m593ed8a622" x="193.62113" y="261.272924" style="fill: #00bfbf"/>
     <use xlink:href="#m593ed8a622" x="194.10594" y="261.05068" style="fill: #00bfbf"/>
     <use xlink:href="#m593ed8a622" x="194.590749" y="260.71649" style="fill: #00bfbf"/>
     <use xlink:href="#m593ed8a622" x="195.075559" y="260.270653" style="fill: #00bfbf"/>
     <use xlink:href="#m593ed8a622" x="195.560369" y="259.713572" style="fill: #00bfbf"/>
     <use xlink:href="#m593ed8a622" x="196.045178" y="259.045747" style="fill: #00bfbf"/>
     <use xlink:href="#m593ed8a622" x="196.529988" y="258.267779" style="fill: #00bfbf"/>
     <use xlink:href="#m593ed8a622" x="197.014798" y="257.38037" style="fill: #00bfbf"/>
     <use xlink:href="#m593ed8a622" x="197.499607" y="256.384316" style="fill: #00bfbf"/>
     <use xlink:href="#m593ed8a622" x="197.984417" y="255.280515" style="fill: #00bfbf"/>
     <use xlink:href="#m593ed8a622" x="198.469226" y="254.06996" style="fill: #00bfbf"/>
     <use xlink:href="#m593ed8a622" x="198.954036" y="252.75374" style="fill: #00bfbf"/>
     <use xlink:href="#m593ed8a622" x="199.438846" y="251.33304" style="fill: #00bfbf"/>
     <use xlink:href="#m593ed8a622" x="199.923655" y="249.809139" style="fill: #00bfbf"/>
     <use xlink:href="#m593ed8a622" x="200.408465" y="248.183407" style="fill: #00bfbf"/>
     <use xlink:href="#m593ed8a622" x="200.893275" y="246.457308" style="fill: #00bfbf"/>
     <use xlink:href="#m593ed8a622" x="201.378084" y="244.632396" style="fill: #00bfbf"/>
     <use xlink:href="#m593ed8a622" x="201.862894" y="242.710312" style="fill: #00bfbf"/>
     <use xlink:href="#m593ed8a622" x="202.347703" y="240.692786" style="fill: #00bfbf"/>
     <use xlink:href="#m593ed8a622" x="202.832513" y="238.581634" style="fill: #00bfbf"/>
     <use xlink:href="#m593ed8a622" x="203.317323" y="236.378756" style="fill: #00bfbf"/>
     <use xlink:href="#m593ed8a622" x="203.802132" y="234.086135" style="fill: #00bfbf"/>
     <use xlink:href="#m593ed8a622" x="204.286942" y="231.705832" style="fill: #00bfbf"/>
     <use xlink:href="#m593ed8a622" x="204.771752" y="229.239992" style="fill: #00bfbf"/>
     <use xlink:href="#m593ed8a622" x="205.256561" y="226.690831" style="fill: #00bfbf"/>
     <use xlink:href="#m593ed8a622" x="205.741371" y="224.060646" style="fill: #00bfbf"/>
     <use xlink:href="#m593ed8a622" x="206.22618" y="221.351802" style="fill: #00bfbf"/>
     <use xlink:href="#m593ed8a622" x="206.71099" y="218.566738" style="fill: #00bfbf"/>
     <use xlink:href="#m593ed8a622" x="207.1958" y="215.70796" style="fill: #00bfbf"/>
     <use xlink:href="#m593ed8a622" x="207.680609" y="212.77804" style="fill: #00bfbf"/>
     <use xlink:href="#m593ed8a622" x="208.165419" y="209.779616" style="fill: #00bfbf"/>
     <use xlink:href="#m593ed8a622" x="208.650228" y="206.715385" style="fill: #00bfbf"/>
     <use xlink:href="#m593ed8a622" x="209.135038" y="203.588106" style="fill: #00bfbf"/>
     <use xlink:href="#m593ed8a622" x="209.619848" y="200.400592" style="fill: #00bfbf"/>
     <use xlink:href="#m593ed8a622" x="210.104657" y="197.155712" style="fill: #00bfbf"/>
     <use xlink:href="#m593ed8a622" x="210.589467" y="193.856387" style="fill: #00bfbf"/>
     <use xlink:href="#m593ed8a622" x="211.074277" y="190.505585" style="fill: #00bfbf"/>
     <use xlink:href="#m593ed8a622" x="211.559086" y="187.106322" style="fill: #00bfbf"/>
     <use xlink:href="#m593ed8a622" x="212.043896" y="183.661658" style="fill: #00bfbf"/>
     <use xlink:href="#m593ed8a622" x="212.528705" y="180.174691" style="fill: #00bfbf"/>
     <use xlink:href="#m593ed8a622" x="213.013515" y="176.648561" style="fill: #00bfbf"/>
     <use xlink:href="#m593ed8a622" x="213.498325" y="173.08644" style="fill: #00bfbf"/>
     <use xlink:href="#m593ed8a622" x="213.983134" y="169.491534" style="fill: #00bfbf"/>
     <use xlink:href="#m593ed8a622" x="214.467944" y="165.867078" style="fill: #00bfbf"/>
     <use xlink:href="#m593ed8a622" x="214.952754" y="162.216334" style="fill: #00bfbf"/>
     <use xlink:href="#m593ed8a622" x="215.437563" y="158.542588" style="fill: #00bfbf"/>
     <use xlink:href="#m593ed8a622" x="215.922373" y="154.849145" style="fill: #00bfbf"/>
     <use xlink:href="#m593ed8a622" x="216.407182" y="151.13933" style="fill: #00bfbf"/>
     <use xlink:href="#m593ed8a622" x="216.891992" y="147.41648" style="fill: #00bfbf"/>
     <use xlink:href="#m593ed8a622" x="217.376802" y="143.683947" style="fill: #00bfbf"/>
     <use xlink:href="#m593ed8a622" x="217.861611" y="139.945089" style="fill: #00bfbf"/>
     <use xlink:href="#m593ed8a622" x="218.346421" y="136.203271" style="fill: #00bfbf"/>
     <use xlink:href="#m593ed8a622" x="218.83123" y="132.461861" style="fill: #00bfbf"/>
     <use xlink:href="#m593ed8a622" x="219.31604" y="128.724225" style="fill: #00bfbf"/>
     <use xlink:href="#m593ed8a622" x="219.80085" y="124.993727" style="fill: #00bfbf"/>
     <use xlink:href="#m593ed8a622" x="220.285659" y="121.273725" style="fill: #00bfbf"/>
     <use xlink:href="#m593ed8a622" x="220.770469" y="117.567565" style="fill: #00bfbf"/>
     <use xlink:href="#m593ed8a622" x="221.255279" y="113.878584" style="fill: #00bfbf"/>
     <use xlink:href="#m593ed8a622" x="221.740088" y="110.210101" style="fill: #00bfbf"/>
     <use xlink:href="#m593ed8a622" x="222.224898" y="106.565417" style="fill: #00bfbf"/>
     <use xlink:href="#m593ed8a622" x="222.709707" y="102.947813" style="fill: #00bfbf"/>
     <use xlink:href="#m593ed8a622" x="223.194517" y="99.360544" style="fill: #00bfbf"/>
     <use xlink:href="#m593ed8a622" x="223.679327" y="95.806838" style="fill: #00bfbf"/>
     <use xlink:href="#m593ed8a622" x="224.164136" y="92.289894" style="fill: #00bfbf"/>
     <use xlink:href="#m593ed8a622" x="224.648946" y="88.812877" style="fill: #00bfbf"/>
     <use xlink:href="#m593ed8a622" x="225.133756" y="85.378915" style="fill: #00bfbf"/>
     <use xlink:href="#m593ed8a622" x="225.618565" y="81.991098" style="fill: #00bfbf"/>
     <use xlink:href="#m593ed8a622" x="226.103375" y="78.652477" style="fill: #00bfbf"/>
     <use xlink:href="#m593ed8a622" x="226.588184" y="75.366055" style="fill: #00bfbf"/>
     <use xlink:href="#m593ed8a622" x="227.072994" y="72.13479" style="fill: #00bfbf"/>
     <use xlink:href="#m593ed8a622" x="227.557804" y="68.961589" style="fill: #00bfbf"/>
     <use xlink:href="#m593ed8a622" x="228.042613" y="65.849309" style="fill: #00bfbf"/>
     <use xlink:href="#m593ed8a622" x="228.527423" y="62.80075" style="fill: #00bfbf"/>
     <use xlink:href="#m593ed8a622" x="229.012232" y="59.818656" style="fill: #00bfbf"/>
     <use xlink:href="#m593ed8a622" x="229.497042" y="56.90571" style="fill: #00bfbf"/>
     <use xlink:href="#m593ed8a622" x="229.981852" y="54.064534" style="fill: #00bfbf"/>
     <use xlink:href="#m593ed8a622" x="230.466661" y="51.297685" style="fill: #00bfbf"/>
     <use xlink:href="#m593ed8a622" x="230.951471" y="48.607652" style="fill: #00bfbf"/>
     <use xlink:href="#m593ed8a622" x="231.436281" y="45.996857" style="fill: #00bfbf"/>
     <use xlink:href="#m593ed8a622" x="231.92109" y="43.467649" style="fill: #00bfbf"/>
     <use xlink:href="#m593ed8a622" x="232.4059" y="41.022305" style="fill: #00bfbf"/>
     <use xlink:href="#m593ed8a622" x="232.890709" y="38.663024" style="fill: #00bfbf"/>
     <use xlink:href="#m593ed8a622" x="233.375519" y="36.391931" style="fill: #00bfbf"/>
     <use xlink:href="#m593ed8a622" x="233.860329" y="34.211068" style="fill: #00bfbf"/>
     <use xlink:href="#m593ed8a622" x="234.345138" y="32.122399" style="fill: #00bfbf"/>
     <use xlink:href="#m593ed8a622" x="234.829948" y="30.127803" style="fill: #00bfbf"/>
     <use xlink:href="#m593ed8a622" x="235.314758" y="28.229075" style="fill: #00bfbf"/>
     <use xlink:href="#m593ed8a622" x="235.799567" y="26.427924" style="fill: #00bfbf"/>
     <use xlink:href="#m593ed8a622" x="236.284377" y="24.725971" style="fill: #00bfbf"/>
     <use xlink:href="#m593ed8a622" x="236.769186" y="23.124747" style="fill: #00bfbf"/>
     <use xlink:href="#m593ed8a622" x="237.253996" y="21.625694" style="fill: #00bfbf"/>
     <use xlink:href="#m593ed8a622" x="237.738806" y="20.23016" style="fill: #00bfbf"/>
     <use xlink:href="#m593ed8a622" x="238.223615" y="18.939402" style="fill: #00bfbf"/>
     <use xlink:href="#m593ed8a622" x="238.708425" y="17.754581" style="fill: #00bfbf"/>
     <use xlink:href="#m593ed8a622" x="239.193234" y="16.676763" style="fill: #00bfbf"/>
     <use xlink:href="#m593ed8a622" x="239.678044" y="15.706918" style="fill: #00bfbf"/>
     <use xlink:href="#m593ed8a622" x="240.162854" y="14.845919" style="fill: #00bfbf"/>
     <use xlink:href="#m593ed8a622" x="240.647663" y="14.094541" style="fill: #00bfbf"/>
     <use xlink:href="#m593ed8a622" x="241.132473" y="13.453461" style="fill: #00bfbf"/>
     <use xlink:href="#m593ed8a622" x="241.617283" y="12.923254" style="fill: #00bfbf"/>
     <use xlink:href="#m593ed8a622" x="242.102092" y="12.504398" style="fill: #00bfbf"/>
     <use xlink:href="#m593ed8a622" x="242.586902" y="12.19727" style="fill: #00bfbf"/>
     <use xlink:href="#m593ed8a622" x="243.071711" y="12.002147" style="fill: #00bfbf"/>
     <use xlink:href="#m593ed8a622" x="243.556521" y="11.919204" style="fill: #00bfbf"/>
     <use xlink:href="#m593ed8a622" x="244.041331" y="11.948515" style="fill: #00bfbf"/>
     <use xlink:href="#m593ed8a622" x="244.52614" y="12.090055" style="fill: #00bfbf"/>
     <use xlink:href="#m593ed8a622" x="245.01095" y="12.343696" style="fill: #00bfbf"/>
     <use xlink:href="#m593ed8a622" x="245.49576" y="12.709209" style="fill: #00bfbf"/>
     <use xlink:href="#m593ed8a622" x="245.980569" y="13.186266" style="fill: #00bfbf"/>
     <use xlink:href="#m593ed8a622" x="246.465379" y="13.774438" style="fill: #00bfbf"/>
     <use xlink:href="#m593ed8a622" x="246.950188" y="14.473195" style="fill: #00bfbf"/>
     <use xlink:href="#m593ed8a622" x="247.434998" y="15.281907" style="fill: #00bfbf"/>
     <use xlink:href="#m593ed8a622" x="247.919808" y="16.199849" style="fill: #00bfbf"/>
     <use xlink:href="#m593ed8a622" x="248.404617" y="17.226193" style="fill: #00bfbf"/>
     <use xlink:href="#m593ed8a622" x="248.889427" y="18.360015" style="fill: #00bfbf"/>
     <use xlink:href="#m593ed8a622" x="249.374236" y="19.600297" style="fill: #00bfbf"/>
     <use xlink:href="#m593ed8a622" x="249.859046" y="20.94592" style="fill: #00bfbf"/>
     <use xlink:href="#m593ed8a622" x="250.343856" y="22.395674" style="fill: #00bfbf"/>
     <use xlink:href="#m593ed8a622" x="250.828665" y="23.948255" style="fill: #00bfbf"/>
     <use xlink:href="#m593ed8a622" x="251.313475" y="25.602266" style="fill: #00bfbf"/>
     <use xlink:href="#m593ed8a622" x="251.798285" y="27.356217" style="fill: #00bfbf"/>
     <use xlink:href="#m593ed8a622" x="252.283094" y="29.208531" style="fill: #00bfbf"/>
     <use xlink:href="#m593ed8a622" x="252.767904" y="31.15754" style="fill: #00bfbf"/>
     <use xlink:href="#m593ed8a622" x="253.252713" y="33.201491" style="fill: #00bfbf"/>
     <use xlink:href="#m593ed8a622" x="253.737523" y="35.338544" style="fill: #00bfbf"/>
     <use xlink:href="#m593ed8a622" x="254.222333" y="37.566776" style="fill: #00bfbf"/>
     <use xlink:href="#m593ed8a622" x="254.707142" y="39.884181" style="fill: #00bfbf"/>
     <use xlink:href="#m593ed8a622" x="255.191952" y="42.288674" style="fill: #00bfbf"/>
     <use xlink:href="#m593ed8a622" x="255.676762" y="44.778092" style="fill: #00bfbf"/>
     <use xlink:href="#m593ed8a622" x="256.161571" y="47.350193" style="fill: #00bfbf"/>
     <use xlink:href="#m593ed8a622" x="256.646381" y="50.002664" style="fill: #00bfbf"/>
     <use xlink:href="#m593ed8a622" x="257.13119" y="52.733117" style="fill: #00bfbf"/>
     <use xlink:href="#m593ed8a622" x="257.616" y="55.539095" style="fill: #00bfbf"/>
    </g>
   </g>
  </g>
 </g>
 <defs>
  <clipPath id="pba3e798a0c">
   <rect x="3.6" y="3.6" width="266.112" height="266.112"/>
  </clipPath>
 </defs>
</svg>
