<?xml version="1.0" encoding="utf-8" standalone="no"?>
<!DOCTYPE svg PUBLIC "-//W3C//DTD SVG 1.1//EN"
  "http://www.w3.org/Graphics/SVG/1.1/DTD/svg11.dtd">
<svg xmlns:xlink="http://www.w3.org/1999/xlink" width="273.312pt" height="273.312pt" viewBox="0 0 273.312 273.312" xmlns="http://www.w3.org/2000/svg" version="1.1">
 <metadata>
  <rdf:RDF xmlns:dc="http://purl.org/dc/elements/1.1/" xmlns:cc="http://creativecommons.org/ns#" xmlns:rdf="http://www.w3.org/1999/02/22-rdf-syntax-ns#">
   <cc:Work>
    <dc:type rdf:resource="http://purl.org/dc/dcmitype/StillImage"/>
    <dc:date>2023-10-26T12:21:25.986035</dc:date>
    <dc:format>image/svg+xml</dc:format>
    <dc:creator>
     <cc:Agent>
      <dc:title>Matplotlib v3.8.0, https://matplotlib.org/</dc:title>
     </cc:Agent>
    </dc:creator>
   </cc:Work>
  </rdf:RDF>
 </metadata>
 <defs>
  <style type="text/css">*{stroke-linejoin: round; stroke-linecap: butt}</style>
 </defs>
 <g id="figure_1">
  <g id="patch_1">
   <path d="M 0 273.312 
L 273.312 273.312 
L 273.312 0 
L 0 0 
z
" style="fill: #ffffff"/>
  </g>
  <g id="axes_1">
   <g id="line2d_1">
    <path d="M 15.696 135.408787 
L 20.544096 123.182291 
L 23.452954 116.35759 
L 25.877002 111.162601 
L 28.30105 106.540139 
L 30.240289 103.324643 
L 32.179527 100.588542 
L 33.633956 98.875019 
L 35.088385 97.467316 
L 36.542814 96.376826 
L 37.997242 95.612378 
L 39.451671 95.180158 
L 40.9061 95.083667 
L 41.875719 95.206352 
L 43.330148 95.669797 
L 44.784577 96.465005 
L 46.239006 97.585541 
L 47.693435 99.022334 
L 49.147864 100.763755 
L 50.602293 102.795706 
L 52.541531 105.928161 
L 54.48077 109.502566 
L 56.904818 114.513199 
L 59.813675 121.171648 
L 63.207343 129.556139 
L 72.903535 153.929272 
L 75.812393 160.42152 
L 78.236441 165.253317 
L 80.175679 168.661088 
L 82.114918 171.608539 
L 83.569347 173.491273 
L 85.023776 175.075843 
L 86.478204 176.349423 
L 87.932633 177.301702 
L 89.387062 177.924974 
L 90.841491 178.214192 
L 91.81111 178.220151 
L 92.780729 178.076524 
L 94.235158 177.581888 
L 95.689587 176.755975 
L 97.144016 175.605472 
L 98.598445 174.13969 
L 100.052874 172.370496 
L 101.507303 170.31221 
L 103.446541 167.147246 
L 105.38578 163.543735 
L 107.809828 158.502137 
L 110.718685 151.815375 
L 114.112353 143.411171 
L 123.323735 120.203376 
L 126.232593 113.63268 
L 128.656641 108.717057 
L 130.59588 105.231478 
L 132.535118 102.197869 
L 133.989547 100.245778 
L 135.443976 98.588411 
L 136.898405 97.239183 
L 138.352834 96.209015 
L 139.807263 95.506247 
L 141.261691 95.136568 
L 142.231311 95.076753 
L 143.20093 95.166579 
L 144.655359 95.581039 
L 146.109788 96.327982 
L 147.564216 97.401361 
L 149.018645 98.792488 
L 150.473074 100.490103 
L 151.927503 102.480464 
L 153.866741 105.56149 
L 155.80598 109.089739 
L 158.230028 114.051098 
L 160.654076 119.520113 
L 164.047743 127.794034 
L 175.198365 155.680342 
L 177.622413 160.991831 
L 180.046461 165.75679 
L 181.985699 169.102868 
L 183.924938 171.982272 
L 185.379367 173.810387 
L 186.833796 175.337754 
L 188.288224 176.552011 
L 189.742653 177.443328 
L 191.197082 178.004491 
L 192.651511 178.230957 
L 193.62113 178.194975 
L 195.075559 177.860884 
L 196.529988 177.19326 
L 197.984417 176.197505 
L 199.438846 174.88168 
L 200.893275 173.256436 
L 202.347703 171.334929 
L 204.286942 168.339277 
L 206.22618 164.887934 
L 208.650228 160.009128 
L 211.074277 154.605862 
L 214.467944 146.393026 
L 226.588184 116.226018 
L 229.012232 111.043552 
L 231.436281 106.436286 
L 233.375519 103.234644 
L 235.314758 100.513692 
L 236.769186 98.812249 
L 238.223615 97.417134 
L 239.678044 96.339639 
L 241.132473 95.588487 
L 242.586902 95.169757 
L 243.556521 95.077068 
L 244.52614 95.134018 
L 245.980569 95.499422 
L 247.434998 96.197969 
L 248.889427 97.224005 
L 250.343856 98.569225 
L 251.798285 100.222739 
L 253.252713 102.171164 
L 255.191952 105.200225 
L 257.13119 108.681706 
L 257.616 109.617032 
L 257.616 109.617032 
" clip-path="url(#p1a5e9af543)" style="fill: none; stroke: #00bfbf; stroke-linecap: square"/>
    <defs>
     <path id="m3e8518e51c" d="M -0.49999 0.49999 
L 0.50001 0.49999 
L 0.50001 -0.50001 
L -0.49999 -0.50001 
z
"/>
    </defs>
    <g clip-path="url(#p1a5e9af543)">
     <use xlink:href="#m3e8518e51c" x="15.696" y="135.408787" style="fill: #00bfbf"/>
     <use xlink:href="#m3e8518e51c" x="16.18081" y="134.162697" style="fill: #00bfbf"/>
     <use xlink:href="#m3e8518e51c" x="16.665619" y="132.91885" style="fill: #00bfbf"/>
     <use xlink:href="#m3e8518e51c" x="17.150429" y="131.678366" style="fill: #00bfbf"/>
     <use xlink:href="#m3e8518e51c" x="17.635238" y="130.442362" style="fill: #00bfbf"/>
     <use xlink:href="#m3e8518e51c" x="18.120048" y="129.21195" style="fill: #00bfbf"/>
     <use xlink:href="#m3e8518e51c" x="18.604858" y="127.988237" style="fill: #00bfbf"/>
     <use xlink:href="#m3e8518e51c" x="19.089667" y="126.772325" style="fill: #00bfbf"/>
     <use xlink:href="#m3e8518e51c" x="19.574477" y="125.565307" style="fill: #00bfbf"/>
     <use xlink:href="#m3e8518e51c" x="20.059287" y="124.36827" style="fill: #00bfbf"/>
     <use xlink:href="#m3e8518e51c" x="20.544096" y="123.182291" style="fill: #00bfbf"/>
     <use xlink:href="#m3e8518e51c" x="21.028906" y="122.008437" style="fill: #00bfbf"/>
     <use xlink:href="#m3e8518e51c" x="21.513715" y="120.847766" style="fill: #00bfbf"/>
     <use xlink:href="#m3e8518e51c" x="21.998525" y="119.70132" style="fill: #00bfbf"/>
     <use xlink:href="#m3e8518e51c" x="22.483335" y="118.570133" style="fill: #00bfbf"/>
     <use xlink:href="#m3e8518e51c" x="22.968144" y="117.455222" style="fill: #00bfbf"/>
     <use xlink:href="#m3e8518e51c" x="23.452954" y="116.35759" style="fill: #00bfbf"/>
     <use xlink:href="#m3e8518e51c" x="23.937764" y="115.278225" style="fill: #00bfbf"/>
     <use xlink:href="#m3e8518e51c" x="24.422573" y="114.218099" style="fill: #00bfbf"/>
     <use xlink:href="#m3e8518e51c" x="24.907383" y="113.178166" style="fill: #00bfbf"/>
     <use xlink:href="#m3e8518e51c" x="25.392192" y="112.159361" style="fill: #00bfbf"/>
     <use xlink:href="#m3e8518e51c" x="25.877002" y="111.162601" style="fill: #00bfbf"/>
     <use xlink:href="#m3e8518e51c" x="26.361812" y="110.188784" style="fill: #00bfbf"/>
     <use xlink:href="#m3e8518e51c" x="26.846621" y="109.238785" style="fill: #00bfbf"/>
     <use xlink:href="#m3e8518e51c" x="27.331431" y="108.31346" style="fill: #00bfbf"/>
     <use xlink:href="#m3e8518e51c" x="27.81624" y="107.413642" style="fill: #00bfbf"/>
     <use xlink:href="#m3e8518e51c" x="28.30105" y="106.540139" style="fill: #00bfbf"/>
     <use xlink:href="#m3e8518e51c" x="28.78586" y="105.693739" style="fill: #00bfbf"/>
     <use xlink:href="#m3e8518e51c" x="29.270669" y="104.875203" style="fill: #00bfbf"/>
     <use xlink:href="#m3e8518e51c" x="29.755479" y="104.085267" style="fill: #00bfbf"/>
     <use xlink:href="#m3e8518e51c" x="30.240289" y="103.324643" style="fill: #00bfbf"/>
     <use xlink:href="#m3e8518e51c" x="30.725098" y="102.594015" style="fill: #00bfbf"/>
     <use xlink:href="#m3e8518e51c" x="31.209908" y="101.89404" style="fill: #00bfbf"/>
     <use xlink:href="#m3e8518e51c" x="31.694717" y="101.225348" style="fill: #00bfbf"/>
     <use xlink:href="#m3e8518e51c" x="32.179527" y="100.588542" style="fill: #00bfbf"/>
     <use xlink:href="#m3e8518e51c" x="32.664337" y="99.984194" style="fill: #00bfbf"/>
     <use xlink:href="#m3e8518e51c" x="33.149146" y="99.412849" style="fill: #00bfbf"/>
     <use xlink:href="#m3e8518e51c" x="33.633956" y="98.875019" style="fill: #00bfbf"/>
     <use xlink:href="#m3e8518e51c" x="34.118766" y="98.37119" style="fill: #00bfbf"/>
     <use xlink:href="#m3e8518e51c" x="34.603575" y="97.901815" style="fill: #00bfbf"/>
     <use xlink:href="#m3e8518e51c" x="35.088385" y="97.467316" style="fill: #00bfbf"/>
     <use xlink:href="#m3e8518e51c" x="35.573194" y="97.068084" style="fill: #00bfbf"/>
     <use xlink:href="#m3e8518e51c" x="36.058004" y="96.704478" style="fill: #00bfbf"/>
     <use xlink:href="#m3e8518e51c" x="36.542814" y="96.376826" style="fill: #00bfbf"/>
     <use xlink:href="#m3e8518e51c" x="37.027623" y="96.085423" style="fill: #00bfbf"/>
     <use xlink:href="#m3e8518e51c" x="37.512433" y="95.83053" style="fill: #00bfbf"/>
     <use xlink:href="#m3e8518e51c" x="37.997242" y="95.612378" style="fill: #00bfbf"/>
     <use xlink:href="#m3e8518e51c" x="38.482052" y="95.431162" style="fill: #00bfbf"/>
     <use xlink:href="#m3e8518e51c" x="38.966862" y="95.287046" style="fill: #00bfbf"/>
     <use xlink:href="#m3e8518e51c" x="39.451671" y="95.180158" style="fill: #00bfbf"/>
     <use xlink:href="#m3e8518e51c" x="39.936481" y="95.110597" style="fill: #00bfbf"/>
     <use xlink:href="#m3e8518e51c" x="40.421291" y="95.078423" style="fill: #00bfbf"/>
     <use xlink:href="#m3e8518e51c" x="40.9061" y="95.083667" style="fill: #00bfbf"/>
     <use xlink:href="#m3e8518e51c" x="41.39091" y="95.126322" style="fill: #00bfbf"/>
     <use xlink:href="#m3e8518e51c" x="41.875719" y="95.206352" style="fill: #00bfbf"/>
     <use xlink:href="#m3e8518e51c" x="42.360529" y="95.323684" style="fill: #00bfbf"/>
     <use xlink:href="#m3e8518e51c" x="42.845339" y="95.478211" style="fill: #00bfbf"/>
     <use xlink:href="#m3e8518e51c" x="43.330148" y="95.669797" style="fill: #00bfbf"/>
     <use xlink:href="#m3e8518e51c" x="43.814958" y="95.898266" style="fill: #00bfbf"/>
     <use xlink:href="#m3e8518e51c" x="44.299768" y="96.163416" style="fill: #00bfbf"/>
     <use xlink:href="#m3e8518e51c" x="44.784577" y="96.465005" style="fill: #00bfbf"/>
     <use xlink:href="#m3e8518e51c" x="45.269387" y="96.802764" style="fill: #00bfbf"/>
     <use xlink:href="#m3e8518e51c" x="45.754196" y="97.176388" style="fill: #00bfbf"/>
     <use xlink:href="#m3e8518e51c" x="46.239006" y="97.585541" style="fill: #00bfbf"/>
     <use xlink:href="#m3e8518e51c" x="46.723816" y="98.029855" style="fill: #00bfbf"/>
     <use xlink:href="#m3e8518e51c" x="47.208625" y="98.50893" style="fill: #00bfbf"/>
     <use xlink:href="#m3e8518e51c" x="47.693435" y="99.022334" style="fill: #00bfbf"/>
     <use xlink:href="#m3e8518e51c" x="48.178244" y="99.569607" style="fill: #00bfbf"/>
     <use xlink:href="#m3e8518e51c" x="48.663054" y="100.150254" style="fill: #00bfbf"/>
     <use xlink:href="#m3e8518e51c" x="49.147864" y="100.763755" style="fill: #00bfbf"/>
     <use xlink:href="#m3e8518e51c" x="49.632673" y="101.409555" style="fill: #00bfbf"/>
     <use xlink:href="#m3e8518e51c" x="50.117483" y="102.087076" style="fill: #00bfbf"/>
     <use xlink:href="#m3e8518e51c" x="50.602293" y="102.795706" style="fill: #00bfbf"/>
     <use xlink:href="#m3e8518e51c" x="51.087102" y="103.534808" style="fill: #00bfbf"/>
     <use xlink:href="#m3e8518e51c" x="51.571912" y="104.303716" style="fill: #00bfbf"/>
     <use xlink:href="#m3e8518e51c" x="52.056721" y="105.10174" style="fill: #00bfbf"/>
     <use xlink:href="#m3e8518e51c" x="52.541531" y="105.928161" style="fill: #00bfbf"/>
     <use xlink:href="#m3e8518e51c" x="53.026341" y="106.782234" style="fill: #00bfbf"/>
     <use xlink:href="#m3e8518e51c" x="53.51115" y="107.663192" style="fill: #00bfbf"/>
     <use xlink:href="#m3e8518e51c" x="53.99596" y="108.570241" style="fill: #00bfbf"/>
     <use xlink:href="#m3e8518e51c" x="54.48077" y="109.502566" style="fill: #00bfbf"/>
     <use xlink:href="#m3e8518e51c" x="54.965579" y="110.459326" style="fill: #00bfbf"/>
     <use xlink:href="#m3e8518e51c" x="55.450389" y="111.439662" style="fill: #00bfbf"/>
     <use xlink:href="#m3e8518e51c" x="55.935198" y="112.442692" style="fill: #00bfbf"/>
     <use xlink:href="#m3e8518e51c" x="56.420008" y="113.467511" style="fill: #00bfbf"/>
     <use xlink:href="#m3e8518e51c" x="56.904818" y="114.513199" style="fill: #00bfbf"/>
     <use xlink:href="#m3e8518e51c" x="57.389627" y="115.578813" style="fill: #00bfbf"/>
     <use xlink:href="#m3e8518e51c" x="57.874437" y="116.663396" style="fill: #00bfbf"/>
     <use xlink:href="#m3e8518e51c" x="58.359246" y="117.76597" style="fill: #00bfbf"/>
     <use xlink:href="#m3e8518e51c" x="58.844056" y="118.885545" style="fill: #00bfbf"/>
     <use xlink:href="#m3e8518e51c" x="59.328866" y="120.021111" style="fill: #00bfbf"/>
     <use xlink:href="#m3e8518e51c" x="59.813675" y="121.171648" style="fill: #00bfbf"/>
     <use xlink:href="#m3e8518e51c" x="60.298485" y="122.33612" style="fill: #00bfbf"/>
     <use xlink:href="#m3e8518e51c" x="60.783295" y="123.513478" style="fill: #00bfbf"/>
     <use xlink:href="#m3e8518e51c" x="61.268104" y="124.702664" style="fill: #00bfbf"/>
     <use xlink:href="#m3e8518e51c" x="61.752914" y="125.902607" style="fill: #00bfbf"/>
     <use xlink:href="#m3e8518e51c" x="62.237723" y="127.112228" style="fill: #00bfbf"/>
     <use xlink:href="#m3e8518e51c" x="62.722533" y="128.330437" style="fill: #00bfbf"/>
     <use xlink:href="#m3e8518e51c" x="63.207343" y="129.556139" style="fill: #00bfbf"/>
     <use xlink:href="#m3e8518e51c" x="63.692152" y="130.78823" style="fill: #00bfbf"/>
     <use xlink:href="#m3e8518e51c" x="64.176962" y="132.025602" style="fill: #00bfbf"/>
     <use xlink:href="#m3e8518e51c" x="64.661772" y="133.267141" style="fill: #00bfbf"/>
     <use xlink:href="#m3e8518e51c" x="65.146581" y="134.511729" style="fill: #00bfbf"/>
     <use xlink:href="#m3e8518e51c" x="65.631391" y="135.758247" style="fill: #00bfbf"/>
     <use xlink:href="#m3e8518e51c" x="66.1162" y="137.005573" style="fill: #00bfbf"/>
     <use xlink:href="#m3e8518e51c" x="66.60101" y="138.252585" style="fill: #00bfbf"/>
     <use xlink:href="#m3e8518e51c" x="67.08582" y="139.49816" style="fill: #00bfbf"/>
     <use xlink:href="#m3e8518e51c" x="67.570629" y="140.741177" style="fill: #00bfbf"/>
     <use xlink:href="#m3e8518e51c" x="68.055439" y="141.980517" style="fill: #00bfbf"/>
     <use xlink:href="#m3e8518e51c" x="68.540248" y="143.215066" style="fill: #00bfbf"/>
     <use xlink:href="#m3e8518e51c" x="69.025058" y="144.443712" style="fill: #00bfbf"/>
     <use xlink:href="#m3e8518e51c" x="69.509868" y="145.66535" style="fill: #00bfbf"/>
     <use xlink:href="#m3e8518e51c" x="69.994677" y="146.87888" style="fill: #00bfbf"/>
     <use xlink:href="#m3e8518e51c" x="70.479487" y="148.08321" style="fill: #00bfbf"/>
     <use xlink:href="#m3e8518e51c" x="70.964297" y="149.277256" style="fill: #00bfbf"/>
     <use xlink:href="#m3e8518e51c" x="71.449106" y="150.459944" style="fill: #00bfbf"/>
     <use xlink:href="#m3e8518e51c" x="71.933916" y="151.63021" style="fill: #00bfbf"/>
     <use xlink:href="#m3e8518e51c" x="72.418725" y="152.786999" style="fill: #00bfbf"/>
     <use xlink:href="#m3e8518e51c" x="72.903535" y="153.929272" style="fill: #00bfbf"/>
     <use xlink:href="#m3e8518e51c" x="73.388345" y="155.056" style="fill: #00bfbf"/>
     <use xlink:href="#m3e8518e51c" x="73.873154" y="156.166169" style="fill: #00bfbf"/>
     <use xlink:href="#m3e8518e51c" x="74.357964" y="157.258781" style="fill: #00bfbf"/>
     <use xlink:href="#m3e8518e51c" x="74.842774" y="158.332851" style="fill: #00bfbf"/>
     <use xlink:href="#m3e8518e51c" x="75.327583" y="159.387414" style="fill: #00bfbf"/>
     <use xlink:href="#m3e8518e51c" x="75.812393" y="160.42152" style="fill: #00bfbf"/>
     <use xlink:href="#m3e8518e51c" x="76.297202" y="161.434238" style="fill: #00bfbf"/>
     <use xlink:href="#m3e8518e51c" x="76.782012" y="162.424658" style="fill: #00bfbf"/>
     <use xlink:href="#m3e8518e51c" x="77.266822" y="163.391888" style="fill: #00bfbf"/>
     <use xlink:href="#m3e8518e51c" x="77.751631" y="164.335057" style="fill: #00bfbf"/>
     <use xlink:href="#m3e8518e51c" x="78.236441" y="165.253317" style="fill: #00bfbf"/>
     <use xlink:href="#m3e8518e51c" x="78.721251" y="166.145841" style="fill: #00bfbf"/>
     <use xlink:href="#m3e8518e51c" x="79.20606" y="167.011827" style="fill: #00bfbf"/>
     <use xlink:href="#m3e8518e51c" x="79.69087" y="167.850494" style="fill: #00bfbf"/>
     <use xlink:href="#m3e8518e51c" x="80.175679" y="168.661088" style="fill: #00bfbf"/>
     <use xlink:href="#m3e8518e51c" x="80.660489" y="169.44288" style="fill: #00bfbf"/>
     <use xlink:href="#m3e8518e51c" x="81.145299" y="170.195166" style="fill: #00bfbf"/>
     <use xlink:href="#m3e8518e51c" x="81.630108" y="170.917269" style="fill: #00bfbf"/>
     <use xlink:href="#m3e8518e51c" x="82.114918" y="171.608539" style="fill: #00bfbf"/>
     <use xlink:href="#m3e8518e51c" x="82.599727" y="172.268354" style="fill: #00bfbf"/>
     <use xlink:href="#m3e8518e51c" x="83.084537" y="172.896121" style="fill: #00bfbf"/>
     <use xlink:href="#m3e8518e51c" x="83.569347" y="173.491273" style="fill: #00bfbf"/>
     <use xlink:href="#m3e8518e51c" x="84.054156" y="174.053277" style="fill: #00bfbf"/>
     <use xlink:href="#m3e8518e51c" x="84.538966" y="174.581625" style="fill: #00bfbf"/>
     <use xlink:href="#m3e8518e51c" x="85.023776" y="175.075843" style="fill: #00bfbf"/>
     <use xlink:href="#m3e8518e51c" x="85.508585" y="175.535486" style="fill: #00bfbf"/>
     <use xlink:href="#m3e8518e51c" x="85.993395" y="175.96014" style="fill: #00bfbf"/>
     <use xlink:href="#m3e8518e51c" x="86.478204" y="176.349423" style="fill: #00bfbf"/>
     <use xlink:href="#m3e8518e51c" x="86.963014" y="176.702984" style="fill: #00bfbf"/>
     <use xlink:href="#m3e8518e51c" x="87.447824" y="177.020506" style="fill: #00bfbf"/>
     <use xlink:href="#m3e8518e51c" x="87.932633" y="177.301702" style="fill: #00bfbf"/>
     <use xlink:href="#m3e8518e51c" x="88.417443" y="177.54632" style="fill: #00bfbf"/>
     <use xlink:href="#m3e8518e51c" x="88.902253" y="177.75414" style="fill: #00bfbf"/>
     <use xlink:href="#m3e8518e51c" x="89.387062" y="177.924974" style="fill: #00bfbf"/>
     <use xlink:href="#m3e8518e51c" x="89.871872" y="178.058668" style="fill: #00bfbf"/>
     <use xlink:href="#m3e8518e51c" x="90.356681" y="178.155104" style="fill: #00bfbf"/>
     <use xlink:href="#m3e8518e51c" x="90.841491" y="178.214192" style="fill: #00bfbf"/>
     <use xlink:href="#m3e8518e51c" x="91.326301" y="178.235881" style="fill: #00bfbf"/>
     <use xlink:href="#m3e8518e51c" x="91.81111" y="178.220151" style="fill: #00bfbf"/>
     <use xlink:href="#m3e8518e51c" x="92.29592" y="178.167016" style="fill: #00bfbf"/>
     <use xlink:href="#m3e8518e51c" x="92.780729" y="178.076524" style="fill: #00bfbf"/>
     <use xlink:href="#m3e8518e51c" x="93.265539" y="177.948757" style="fill: #00bfbf"/>
     <use xlink:href="#m3e8518e51c" x="93.750349" y="177.783828" style="fill: #00bfbf"/>
     <use xlink:href="#m3e8518e51c" x="94.235158" y="177.581888" style="fill: #00bfbf"/>
     <use xlink:href="#m3e8518e51c" x="94.719968" y="177.343116" style="fill: #00bfbf"/>
     <use xlink:href="#m3e8518e51c" x="95.204778" y="177.06773" style="fill: #00bfbf"/>
     <use xlink:href="#m3e8518e51c" x="95.689587" y="176.755975" style="fill: #00bfbf"/>
     <use xlink:href="#m3e8518e51c" x="96.174397" y="176.408133" style="fill: #00bfbf"/>
     <use xlink:href="#m3e8518e51c" x="96.659206" y="176.024517" style="fill: #00bfbf"/>
     <use xlink:href="#m3e8518e51c" x="97.144016" y="175.605472" style="fill: #00bfbf"/>
     <use xlink:href="#m3e8518e51c" x="97.628826" y="175.151374" style="fill: #00bfbf"/>
     <use xlink:href="#m3e8518e51c" x="98.113635" y="174.662634" style="fill: #00bfbf"/>
     <use xlink:href="#m3e8518e51c" x="98.598445" y="174.13969" style="fill: #00bfbf"/>
     <use xlink:href="#m3e8518e51c" x="99.083255" y="173.583014" style="fill: #00bfbf"/>
     <use xlink:href="#m3e8518e51c" x="99.568064" y="172.993106" style="fill: #00bfbf"/>
     <use xlink:href="#m3e8518e51c" x="100.052874" y="172.370496" style="fill: #00bfbf"/>
     <use xlink:href="#m3e8518e51c" x="100.537683" y="171.715746" style="fill: #00bfbf"/>
     <use xlink:href="#m3e8518e51c" x="101.022493" y="171.029445" style="fill: #00bfbf"/>
     <use xlink:href="#m3e8518e51c" x="101.507303" y="170.31221" style="fill: #00bfbf"/>
     <use xlink:href="#m3e8518e51c" x="101.992112" y="169.564686" style="fill: #00bfbf"/>
     <use xlink:href="#m3e8518e51c" x="102.476922" y="168.787547" style="fill: #00bfbf"/>
     <use xlink:href="#m3e8518e51c" x="102.961731" y="167.981492" style="fill: #00bfbf"/>
     <use xlink:href="#m3e8518e51c" x="103.446541" y="167.147246" style="fill: #00bfbf"/>
     <use xlink:href="#m3e8518e51c" x="103.931351" y="166.28556" style="fill: #00bfbf"/>
     <use xlink:href="#m3e8518e51c" x="104.41616" y="165.397209" style="fill: #00bfbf"/>
     <use xlink:href="#m3e8518e51c" x="104.90097" y="164.482993" style="fill: #00bfbf"/>
     <use xlink:href="#m3e8518e51c" x="105.38578" y="163.543735" style="fill: #00bfbf"/>
     <use xlink:href="#m3e8518e51c" x="105.870589" y="162.580279" style="fill: #00bfbf"/>
     <use xlink:href="#m3e8518e51c" x="106.355399" y="161.593494" style="fill: #00bfbf"/>
     <use xlink:href="#m3e8518e51c" x="106.840208" y="160.584266" style="fill: #00bfbf"/>
     <use xlink:href="#m3e8518e51c" x="107.325018" y="159.553505" style="fill: #00bfbf"/>
     <use xlink:href="#m3e8518e51c" x="107.809828" y="158.502137" style="fill: #00bfbf"/>
     <use xlink:href="#m3e8518e51c" x="108.294637" y="157.43111" style="fill: #00bfbf"/>
     <use xlink:href="#m3e8518e51c" x="108.779447" y="156.341386" style="fill: #00bfbf"/>
     <use xlink:href="#m3e8518e51c" x="109.264257" y="155.233946" style="fill: #00bfbf"/>
     <use xlink:href="#m3e8518e51c" x="109.749066" y="154.109788" style="fill: #00bfbf"/>
     <use xlink:href="#m3e8518e51c" x="110.233876" y="152.969922" style="fill: #00bfbf"/>
     <use xlink:href="#m3e8518e51c" x="110.718685" y="151.815375" style="fill: #00bfbf"/>
     <use xlink:href="#m3e8518e51c" x="111.203495" y="150.647186" style="fill: #00bfbf"/>
     <use xlink:href="#m3e8518e51c" x="111.688305" y="149.466405" style="fill: #00bfbf"/>
     <use xlink:href="#m3e8518e51c" x="112.173114" y="148.274096" style="fill: #00bfbf"/>
     <use xlink:href="#m3e8518e51c" x="112.657924" y="147.071332" style="fill: #00bfbf"/>
     <use xlink:href="#m3e8518e51c" x="113.142733" y="145.859194" style="fill: #00bfbf"/>
     <use xlink:href="#m3e8518e51c" x="113.627543" y="144.638774" style="fill: #00bfbf"/>
     <use xlink:href="#m3e8518e51c" x="114.112353" y="143.411171" style="fill: #00bfbf"/>
     <use xlink:href="#m3e8518e51c" x="114.597162" y="142.177488" style="fill: #00bfbf"/>
     <use xlink:href="#m3e8518e51c" x="115.081972" y="140.938836" style="fill: #00bfbf"/>
     <use xlink:href="#m3e8518e51c" x="115.566782" y="139.696329" style="fill: #00bfbf"/>
     <use xlink:href="#m3e8518e51c" x="116.051591" y="138.451087" style="fill: #00bfbf"/>
     <use xlink:href="#m3e8518e51c" x="116.536401" y="137.204229" style="fill: #00bfbf"/>
     <use xlink:href="#m3e8518e51c" x="117.02121" y="135.956878" style="fill: #00bfbf"/>
     <use xlink:href="#m3e8518e51c" x="117.50602" y="134.710156" style="fill: #00bfbf"/>
     <use xlink:href="#m3e8518e51c" x="117.99083" y="133.465185" style="fill: #00bfbf"/>
     <use xlink:href="#m3e8518e51c" x="118.475639" y="132.223086" style="fill: #00bfbf"/>
     <use xlink:href="#m3e8518e51c" x="118.960449" y="130.984976" style="fill: #00bfbf"/>
     <use xlink:href="#m3e8518e51c" x="119.445259" y="129.751969" style="fill: #00bfbf"/>
     <use xlink:href="#m3e8518e51c" x="119.930068" y="128.525176" style="fill: #00bfbf"/>
     <use xlink:href="#m3e8518e51c" x="120.414878" y="127.3057" style="fill: #00bfbf"/>
     <use xlink:href="#m3e8518e51c" x="120.899687" y="126.094638" style="fill: #00bfbf"/>
     <use xlink:href="#m3e8518e51c" x="121.384497" y="124.893081" style="fill: #00bfbf"/>
     <use xlink:href="#m3e8518e51c" x="121.869307" y="123.70211" style="fill: #00bfbf"/>
     <use xlink:href="#m3e8518e51c" x="122.354116" y="122.522797" style="fill: #00bfbf"/>
     <use xlink:href="#m3e8518e51c" x="122.838926" y="121.356202" style="fill: #00bfbf"/>
     <use xlink:href="#m3e8518e51c" x="123.323735" y="120.203376" style="fill: #00bfbf"/>
     <use xlink:href="#m3e8518e51c" x="123.808545" y="119.065357" style="fill: #00bfbf"/>
     <use xlink:href="#m3e8518e51c" x="124.293355" y="117.943167" style="fill: #00bfbf"/>
     <use xlink:href="#m3e8518e51c" x="124.778164" y="116.837819" style="fill: #00bfbf"/>
     <use xlink:href="#m3e8518e51c" x="125.262974" y="115.750305" style="fill: #00bfbf"/>
     <use xlink:href="#m3e8518e51c" x="125.747784" y="114.681605" style="fill: #00bfbf"/>
     <use xlink:href="#m3e8518e51c" x="126.232593" y="113.63268" style="fill: #00bfbf"/>
     <use xlink:href="#m3e8518e51c" x="126.717403" y="112.604475" style="fill: #00bfbf"/>
     <use xlink:href="#m3e8518e51c" x="127.202212" y="111.597914" style="fill: #00bfbf"/>
     <use xlink:href="#m3e8518e51c" x="127.687022" y="110.613904" style="fill: #00bfbf"/>
     <use xlink:href="#m3e8518e51c" x="128.171832" y="109.65333" style="fill: #00bfbf"/>
     <use xlink:href="#m3e8518e51c" x="128.656641" y="108.717057" style="fill: #00bfbf"/>
     <use xlink:href="#m3e8518e51c" x="129.141451" y="107.805927" style="fill: #00bfbf"/>
     <use xlink:href="#m3e8518e51c" x="129.626261" y="106.92076" style="fill: #00bfbf"/>
     <use xlink:href="#m3e8518e51c" x="130.11107" y="106.062353" style="fill: #00bfbf"/>
     <use xlink:href="#m3e8518e51c" x="130.59588" y="105.231478" style="fill: #00bfbf"/>
     <use xlink:href="#m3e8518e51c" x="131.080689" y="104.428883" style="fill: #00bfbf"/>
     <use xlink:href="#m3e8518e51c" x="131.565499" y="103.65529" style="fill: #00bfbf"/>
     <use xlink:href="#m3e8518e51c" x="132.050309" y="102.911396" style="fill: #00bfbf"/>
     <use xlink:href="#m3e8518e51c" x="132.535118" y="102.197869" style="fill: #00bfbf"/>
     <use xlink:href="#m3e8518e51c" x="133.019928" y="101.515353" style="fill: #00bfbf"/>
     <use xlink:href="#m3e8518e51c" x="133.504737" y="100.86446" style="fill: #00bfbf"/>
     <use xlink:href="#m3e8518e51c" x="133.989547" y="100.245778" style="fill: #00bfbf"/>
     <use xlink:href="#m3e8518e51c" x="134.474357" y="99.659862" style="fill: #00bfbf"/>
     <use xlink:href="#m3e8518e51c" x="134.959166" y="99.107241" style="fill: #00bfbf"/>
     <use xlink:href="#m3e8518e51c" x="135.443976" y="98.588411" style="fill: #00bfbf"/>
     <use xlink:href="#m3e8518e51c" x="135.928786" y="98.103839" style="fill: #00bfbf"/>
     <use xlink:href="#m3e8518e51c" x="136.413595" y="97.653961" style="fill: #00bfbf"/>
     <use xlink:href="#m3e8518e51c" x="136.898405" y="97.239183" style="fill: #00bfbf"/>
     <use xlink:href="#m3e8518e51c" x="137.383214" y="96.859877" style="fill: #00bfbf"/>
     <use xlink:href="#m3e8518e51c" x="137.868024" y="96.516384" style="fill: #00bfbf"/>
     <use xlink:href="#m3e8518e51c" x="138.352834" y="96.209015" style="fill: #00bfbf"/>
     <use xlink:href="#m3e8518e51c" x="138.837643" y="95.938046" style="fill: #00bfbf"/>
     <use xlink:href="#m3e8518e51c" x="139.322453" y="95.703719" style="fill: #00bfbf"/>
     <use xlink:href="#m3e8518e51c" x="139.807263" y="95.506247" style="fill: #00bfbf"/>
     <use xlink:href="#m3e8518e51c" x="140.292072" y="95.345807" style="fill: #00bfbf"/>
     <use xlink:href="#m3e8518e51c" x="140.776882" y="95.222544" style="fill: #00bfbf"/>
     <use xlink:href="#m3e8518e51c" x="141.261691" y="95.136568" style="fill: #00bfbf"/>
     <use xlink:href="#m3e8518e51c" x="141.746501" y="95.087956" style="fill: #00bfbf"/>
     <use xlink:href="#m3e8518e51c" x="142.231311" y="95.076753" style="fill: #00bfbf"/>
     <use xlink:href="#m3e8518e51c" x="142.71612" y="95.102968" style="fill: #00bfbf"/>
     <use xlink:href="#m3e8518e51c" x="143.20093" y="95.166579" style="fill: #00bfbf"/>
     <use xlink:href="#m3e8518e51c" x="143.685739" y="95.267527" style="fill: #00bfbf"/>
     <use xlink:href="#m3e8518e51c" x="144.170549" y="95.405722" style="fill: #00bfbf"/>
     <use xlink:href="#m3e8518e51c" x="144.655359" y="95.581039" style="fill: #00bfbf"/>
     <use xlink:href="#m3e8518e51c" x="145.140168" y="95.793321" style="fill: #00bfbf"/>
     <use xlink:href="#m3e8518e51c" x="145.624978" y="96.042377" style="fill: #00bfbf"/>
     <use xlink:href="#m3e8518e51c" x="146.109788" y="96.327982" style="fill: #00bfbf"/>
     <use xlink:href="#m3e8518e51c" x="146.594597" y="96.649879" style="fill: #00bfbf"/>
     <use xlink:href="#m3e8518e51c" x="147.079407" y="97.00778" style="fill: #00bfbf"/>
     <use xlink:href="#m3e8518e51c" x="147.564216" y="97.401361" style="fill: #00bfbf"/>
     <use xlink:href="#m3e8518e51c" x="148.049026" y="97.830269" style="fill: #00bfbf"/>
     <use xlink:href="#m3e8518e51c" x="148.533836" y="98.294117" style="fill: #00bfbf"/>
     <use xlink:href="#m3e8518e51c" x="149.018645" y="98.792488" style="fill: #00bfbf"/>
     <use xlink:href="#m3e8518e51c" x="149.503455" y="99.324934" style="fill: #00bfbf"/>
     <use xlink:href="#m3e8518e51c" x="149.988265" y="99.890976" style="fill: #00bfbf"/>
     <use xlink:href="#m3e8518e51c" x="150.473074" y="100.490103" style="fill: #00bfbf"/>
     <use xlink:href="#m3e8518e51c" x="150.957884" y="101.121777" style="fill: #00bfbf"/>
     <use xlink:href="#m3e8518e51c" x="151.442693" y="101.78543" style="fill: #00bfbf"/>
     <use xlink:href="#m3e8518e51c" x="151.927503" y="102.480464" style="fill: #00bfbf"/>
     <use xlink:href="#m3e8518e51c" x="152.412313" y="103.206254" style="fill: #00bfbf"/>
     <use xlink:href="#m3e8518e51c" x="152.897122" y="103.962146" style="fill: #00bfbf"/>
     <use xlink:href="#m3e8518e51c" x="153.381932" y="104.74746" style="fill: #00bfbf"/>
     <use xlink:href="#m3e8518e51c" x="153.866741" y="105.56149" style="fill: #00bfbf"/>
     <use xlink:href="#m3e8518e51c" x="154.351551" y="106.403503" style="fill: #00bfbf"/>
     <use xlink:href="#m3e8518e51c" x="154.836361" y="107.272741" style="fill: #00bfbf"/>
     <use xlink:href="#m3e8518e51c" x="155.32117" y="108.168422" style="fill: #00bfbf"/>
     <use xlink:href="#m3e8518e51c" x="155.80598" y="109.089739" style="fill: #00bfbf"/>
     <use xlink:href="#m3e8518e51c" x="156.29079" y="110.035865" style="fill: #00bfbf"/>
     <use xlink:href="#m3e8518e51c" x="156.775599" y="111.005947" style="fill: #00bfbf"/>
     <use xlink:href="#m3e8518e51c" x="157.260409" y="111.999112" style="fill: #00bfbf"/>
     <use xlink:href="#m3e8518e51c" x="157.745218" y="113.014467" style="fill: #00bfbf"/>
     <use xlink:href="#m3e8518e51c" x="158.230028" y="114.051098" style="fill: #00bfbf"/>
     <use xlink:href="#m3e8518e51c" x="158.714838" y="115.108071" style="fill: #00bfbf"/>
     <use xlink:href="#m3e8518e51c" x="159.199647" y="116.184436" style="fill: #00bfbf"/>
     <use xlink:href="#m3e8518e51c" x="159.684457" y="117.279225" style="fill: #00bfbf"/>
     <use xlink:href="#m3e8518e51c" x="160.169267" y="118.391451" style="fill: #00bfbf"/>
     <use xlink:href="#m3e8518e51c" x="160.654076" y="119.520113" style="fill: #00bfbf"/>
     <use xlink:href="#m3e8518e51c" x="161.138886" y="120.664197" style="fill: #00bfbf"/>
     <use xlink:href="#m3e8518e51c" x="161.623695" y="121.822673" style="fill: #00bfbf"/>
     <use xlink:href="#m3e8518e51c" x="162.108505" y="122.994497" style="fill: #00bfbf"/>
     <use xlink:href="#m3e8518e51c" x="162.593315" y="124.178616" style="fill: #00bfbf"/>
     <use xlink:href="#m3e8518e51c" x="163.078124" y="125.373964" style="fill: #00bfbf"/>
     <use xlink:href="#m3e8518e51c" x="163.562934" y="126.579465" style="fill: #00bfbf"/>
     <use xlink:href="#m3e8518e51c" x="164.047743" y="127.794034" style="fill: #00bfbf"/>
     <use xlink:href="#m3e8518e51c" x="164.532553" y="129.016578" style="fill: #00bfbf"/>
     <use xlink:href="#m3e8518e51c" x="165.017363" y="130.245997" style="fill: #00bfbf"/>
     <use xlink:href="#m3e8518e51c" x="165.502172" y="131.481185" style="fill: #00bfbf"/>
     <use xlink:href="#m3e8518e51c" x="165.986982" y="132.72103" style="fill: #00bfbf"/>
     <use xlink:href="#m3e8518e51c" x="166.471792" y="133.964416" style="fill: #00bfbf"/>
     <use xlink:href="#m3e8518e51c" x="166.956601" y="135.210224" style="fill: #00bfbf"/>
     <use xlink:href="#m3e8518e51c" x="167.441411" y="136.457333" style="fill: #00bfbf"/>
     <use xlink:href="#m3e8518e51c" x="167.92622" y="137.704621" style="fill: #00bfbf"/>
     <use xlink:href="#m3e8518e51c" x="168.41103" y="138.950966" style="fill: #00bfbf"/>
     <use xlink:href="#m3e8518e51c" x="168.89584" y="140.195245" style="fill: #00bfbf"/>
     <use xlink:href="#m3e8518e51c" x="169.380649" y="141.436339" style="fill: #00bfbf"/>
     <use xlink:href="#m3e8518e51c" x="169.865459" y="142.673131" style="fill: #00bfbf"/>
     <use xlink:href="#m3e8518e51c" x="170.350269" y="143.904508" style="fill: #00bfbf"/>
     <use xlink:href="#m3e8518e51c" x="170.835078" y="145.129361" style="fill: #00bfbf"/>
     <use xlink:href="#m3e8518e51c" x="171.319888" y="146.34659" style="fill: #00bfbf"/>
     <use xlink:href="#m3e8518e51c" x="171.804697" y="147.555097" style="fill: #00bfbf"/>
     <use xlink:href="#m3e8518e51c" x="172.289507" y="148.753796" style="fill: #00bfbf"/>
     <use xlink:href="#m3e8518e51c" x="172.774317" y="149.941608" style="fill: #00bfbf"/>
     <use xlink:href="#m3e8518e51c" x="173.259126" y="151.117464" style="fill: #00bfbf"/>
     <use xlink:href="#m3e8518e51c" x="173.743936" y="152.280305" style="fill: #00bfbf"/>
     <use xlink:href="#m3e8518e51c" x="174.228745" y="153.429086" style="fill: #00bfbf"/>
     <use xlink:href="#m3e8518e51c" x="174.713555" y="154.562771" style="fill: #00bfbf"/>
     <use xlink:href="#m3e8518e51c" x="175.198365" y="155.680342" style="fill: #00bfbf"/>
     <use xlink:href="#m3e8518e51c" x="175.683174" y="156.780793" style="fill: #00bfbf"/>
     <use xlink:href="#m3e8518e51c" x="176.167984" y="157.863132" style="fill: #00bfbf"/>
     <use xlink:href="#m3e8518e51c" x="176.652794" y="158.926387" style="fill: #00bfbf"/>
     <use xlink:href="#m3e8518e51c" x="177.137603" y="159.969599" style="fill: #00bfbf"/>
     <use xlink:href="#m3e8518e51c" x="177.622413" y="160.991831" style="fill: #00bfbf"/>
     <use xlink:href="#m3e8518e51c" x="178.107222" y="161.992162" style="fill: #00bfbf"/>
     <use xlink:href="#m3e8518e51c" x="178.592032" y="162.969693" style="fill: #00bfbf"/>
     <use xlink:href="#m3e8518e51c" x="179.076842" y="163.923543" style="fill: #00bfbf"/>
     <use xlink:href="#m3e8518e51c" x="179.561651" y="164.852854" style="fill: #00bfbf"/>
     <use xlink:href="#m3e8518e51c" x="180.046461" y="165.75679" style="fill: #00bfbf"/>
     <use xlink:href="#m3e8518e51c" x="180.531271" y="166.634536" style="fill: #00bfbf"/>
     <use xlink:href="#m3e8518e51c" x="181.01608" y="167.485305" style="fill: #00bfbf"/>
     <use xlink:href="#m3e8518e51c" x="181.50089" y="168.308329" style="fill: #00bfbf"/>
     <use xlink:href="#m3e8518e51c" x="181.985699" y="169.102868" style="fill: #00bfbf"/>
     <use xlink:href="#m3e8518e51c" x="182.470509" y="169.868207" style="fill: #00bfbf"/>
     <use xlink:href="#m3e8518e51c" x="182.955319" y="170.603657" style="fill: #00bfbf"/>
     <use xlink:href="#m3e8518e51c" x="183.440128" y="171.308557" style="fill: #00bfbf"/>
     <use xlink:href="#m3e8518e51c" x="183.924938" y="171.982272" style="fill: #00bfbf"/>
     <use xlink:href="#m3e8518e51c" x="184.409747" y="172.624195" style="fill: #00bfbf"/>
     <use xlink:href="#m3e8518e51c" x="184.894557" y="173.23375" style="fill: #00bfbf"/>
     <use xlink:href="#m3e8518e51c" x="185.379367" y="173.810387" style="fill: #00bfbf"/>
     <use xlink:href="#m3e8518e51c" x="185.864176" y="174.353587" style="fill: #00bfbf"/>
     <use xlink:href="#m3e8518e51c" x="186.348986" y="174.862863" style="fill: #00bfbf"/>
     <use xlink:href="#m3e8518e51c" x="186.833796" y="175.337754" style="fill: #00bfbf"/>
     <use xlink:href="#m3e8518e51c" x="187.318605" y="175.777835" style="fill: #00bfbf"/>
     <use xlink:href="#m3e8518e51c" x="187.803415" y="176.182709" style="fill: #00bfbf"/>
     <use xlink:href="#m3e8518e51c" x="188.288224" y="176.552011" style="fill: #00bfbf"/>
     <use xlink:href="#m3e8518e51c" x="188.773034" y="176.88541" style="fill: #00bfbf"/>
     <use xlink:href="#m3e8518e51c" x="189.257844" y="177.182605" style="fill: #00bfbf"/>
     <use xlink:href="#m3e8518e51c" x="189.742653" y="177.443328" style="fill: #00bfbf"/>
     <use xlink:href="#m3e8518e51c" x="190.227463" y="177.667346" style="fill: #00bfbf"/>
     <use xlink:href="#m3e8518e51c" x="190.712273" y="177.854457" style="fill: #00bfbf"/>
     <use xlink:href="#m3e8518e51c" x="191.197082" y="178.004491" style="fill: #00bfbf"/>
     <use xlink:href="#m3e8518e51c" x="191.681892" y="178.117315" style="fill: #00bfbf"/>
     <use xlink:href="#m3e8518e51c" x="192.166701" y="178.192826" style="fill: #00bfbf"/>
     <use xlink:href="#m3e8518e51c" x="192.651511" y="178.230957" style="fill: #00bfbf"/>
     <use xlink:href="#m3e8518e51c" x="193.136321" y="178.231674" style="fill: #00bfbf"/>
     <use xlink:href="#m3e8518e51c" x="193.62113" y="178.194975" style="fill: #00bfbf"/>
     <use xlink:href="#m3e8518e51c" x="194.10594" y="178.120893" style="fill: #00bfbf"/>
     <use xlink:href="#m3e8518e51c" x="194.590749" y="178.009497" style="fill: #00bfbf"/>
     <use xlink:href="#m3e8518e51c" x="195.075559" y="177.860884" style="fill: #00bfbf"/>
     <use xlink:href="#m3e8518e51c" x="195.560369" y="177.675191" style="fill: #00bfbf"/>
     <use xlink:href="#m3e8518e51c" x="196.045178" y="177.452582" style="fill: #00bfbf"/>
     <use xlink:href="#m3e8518e51c" x="196.529988" y="177.19326" style="fill: #00bfbf"/>
     <use xlink:href="#m3e8518e51c" x="197.014798" y="176.897457" style="fill: #00bfbf"/>
     <use xlink:href="#m3e8518e51c" x="197.499607" y="176.565439" style="fill: #00bfbf"/>
     <use xlink:href="#m3e8518e51c" x="197.984417" y="176.197505" style="fill: #00bfbf"/>
     <use xlink:href="#m3e8518e51c" x="198.469226" y="175.793987" style="fill: #00bfbf"/>
     <use xlink:href="#m3e8518e51c" x="198.954036" y="175.355247" style="fill: #00bfbf"/>
     <use xlink:href="#m3e8518e51c" x="199.438846" y="174.88168" style="fill: #00bfbf"/>
     <use xlink:href="#m3e8518e51c" x="199.923655" y="174.373713" style="fill: #00bfbf"/>
     <use xlink:href="#m3e8518e51c" x="200.408465" y="173.831802" style="fill: #00bfbf"/>
     <use xlink:href="#m3e8518e51c" x="200.893275" y="173.256436" style="fill: #00bfbf"/>
     <use xlink:href="#m3e8518e51c" x="201.378084" y="172.648132" style="fill: #00bfbf"/>
     <use xlink:href="#m3e8518e51c" x="201.862894" y="172.007437" style="fill: #00bfbf"/>
     <use xlink:href="#m3e8518e51c" x="202.347703" y="171.334929" style="fill: #00bfbf"/>
     <use xlink:href="#m3e8518e51c" x="202.832513" y="170.631211" style="fill: #00bfbf"/>
     <use xlink:href="#m3e8518e51c" x="203.317323" y="169.896919" style="fill: #00bfbf"/>
     <use xlink:href="#m3e8518e51c" x="203.802132" y="169.132712" style="fill: #00bfbf"/>
     <use xlink:href="#m3e8518e51c" x="204.286942" y="168.339277" style="fill: #00bfbf"/>
     <use xlink:href="#m3e8518e51c" x="204.771752" y="167.517331" style="fill: #00bfbf"/>
     <use xlink:href="#m3e8518e51c" x="205.256561" y="166.66761" style="fill: #00bfbf"/>
     <use xlink:href="#m3e8518e51c" x="205.741371" y="165.790882" style="fill: #00bfbf"/>
     <use xlink:href="#m3e8518e51c" x="206.22618" y="164.887934" style="fill: #00bfbf"/>
     <use xlink:href="#m3e8518e51c" x="206.71099" y="163.959579" style="fill: #00bfbf"/>
     <use xlink:href="#m3e8518e51c" x="207.1958" y="163.006653" style="fill: #00bfbf"/>
     <use xlink:href="#m3e8518e51c" x="207.680609" y="162.030013" style="fill: #00bfbf"/>
     <use xlink:href="#m3e8518e51c" x="208.165419" y="161.030539" style="fill: #00bfbf"/>
     <use xlink:href="#m3e8518e51c" x="208.650228" y="160.009128" style="fill: #00bfbf"/>
     <use xlink:href="#m3e8518e51c" x="209.135038" y="158.966702" style="fill: #00bfbf"/>
     <use xlink:href="#m3e8518e51c" x="209.619848" y="157.904197" style="fill: #00bfbf"/>
     <use xlink:href="#m3e8518e51c" x="210.104657" y="156.822571" style="fill: #00bfbf"/>
     <use xlink:href="#m3e8518e51c" x="210.589467" y="155.722796" style="fill: #00bfbf"/>
     <use xlink:href="#m3e8518e51c" x="211.074277" y="154.605862" style="fill: #00bfbf"/>
     <use xlink:href="#m3e8518e51c" x="211.559086" y="153.472774" style="fill: #00bfbf"/>
     <use xlink:href="#m3e8518e51c" x="212.043896" y="152.324553" style="fill: #00bfbf"/>
     <use xlink:href="#m3e8518e51c" x="212.528705" y="151.16223" style="fill: #00bfbf"/>
     <use xlink:href="#m3e8518e51c" x="213.013515" y="149.986854" style="fill: #00bfbf"/>
     <use xlink:href="#m3e8518e51c" x="213.498325" y="148.79948" style="fill: #00bfbf"/>
     <use xlink:href="#m3e8518e51c" x="213.983134" y="147.601178" style="fill: #00bfbf"/>
     <use xlink:href="#m3e8518e51c" x="214.467944" y="146.393026" style="fill: #00bfbf"/>
     <use xlink:href="#m3e8518e51c" x="214.952754" y="145.176111" style="fill: #00bfbf"/>
     <use xlink:href="#m3e8518e51c" x="215.437563" y="143.951529" style="fill: #00bfbf"/>
     <use xlink:href="#m3e8518e51c" x="215.922373" y="142.720382" style="fill: #00bfbf"/>
     <use xlink:href="#m3e8518e51c" x="216.407182" y="141.483777" style="fill: #00bfbf"/>
     <use xlink:href="#m3e8518e51c" x="216.891992" y="140.242827" style="fill: #00bfbf"/>
     <use xlink:href="#m3e8518e51c" x="217.376802" y="138.998649" style="fill: #00bfbf"/>
     <use xlink:href="#m3e8518e51c" x="217.861611" y="137.752363" style="fill: #00bfbf"/>
     <use xlink:href="#m3e8518e51c" x="218.346421" y="136.50509" style="fill: #00bfbf"/>
     <use xlink:href="#m3e8518e51c" x="218.83123" y="135.257954" style="fill: #00bfbf"/>
     <use xlink:href="#m3e8518e51c" x="219.31604" y="134.012075" style="fill: #00bfbf"/>
     <use xlink:href="#m3e8518e51c" x="219.80085" y="132.768576" style="fill: #00bfbf"/>
     <use xlink:href="#m3e8518e51c" x="220.285659" y="131.528575" style="fill: #00bfbf"/>
     <use xlink:href="#m3e8518e51c" x="220.770469" y="130.293188" style="fill: #00bfbf"/>
     <use xlink:href="#m3e8518e51c" x="221.255279" y="129.063528" style="fill: #00bfbf"/>
     <use xlink:href="#m3e8518e51c" x="221.740088" y="127.8407" style="fill: #00bfbf"/>
     <use xlink:href="#m3e8518e51c" x="222.224898" y="126.625806" style="fill: #00bfbf"/>
     <use xlink:href="#m3e8518e51c" x="222.709707" y="125.419938" style="fill: #00bfbf"/>
     <use xlink:href="#m3e8518e51c" x="223.194517" y="124.224181" style="fill: #00bfbf"/>
     <use xlink:href="#m3e8518e51c" x="223.679327" y="123.039613" style="fill: #00bfbf"/>
     <use xlink:href="#m3e8518e51c" x="224.164136" y="121.867298" style="fill: #00bfbf"/>
     <use xlink:href="#m3e8518e51c" x="224.648946" y="120.708292" style="fill: #00bfbf"/>
     <use xlink:href="#m3e8518e51c" x="225.133756" y="119.563638" style="fill: #00bfbf"/>
     <use xlink:href="#m3e8518e51c" x="225.618565" y="118.434366" style="fill: #00bfbf"/>
     <use xlink:href="#m3e8518e51c" x="226.103375" y="117.321492" style="fill: #00bfbf"/>
     <use xlink:href="#m3e8518e51c" x="226.588184" y="116.226018" style="fill: #00bfbf"/>
     <use xlink:href="#m3e8518e51c" x="227.072994" y="115.14893" style="fill: #00bfbf"/>
     <use xlink:href="#m3e8518e51c" x="227.557804" y="114.091196" style="fill: #00bfbf"/>
     <use xlink:href="#m3e8518e51c" x="228.042613" y="113.05377" style="fill: #00bfbf"/>
     <use xlink:href="#m3e8518e51c" x="228.527423" y="112.037583" style="fill: #00bfbf"/>
     <use xlink:href="#m3e8518e51c" x="229.012232" y="111.043552" style="fill: #00bfbf"/>
     <use xlink:href="#m3e8518e51c" x="229.497042" y="110.07257" style="fill: #00bfbf"/>
     <use xlink:href="#m3e8518e51c" x="229.981852" y="109.125511" style="fill: #00bfbf"/>
     <use xlink:href="#m3e8518e51c" x="230.466661" y="108.203228" style="fill: #00bfbf"/>
     <use xlink:href="#m3e8518e51c" x="230.951471" y="107.306551" style="fill: #00bfbf"/>
     <use xlink:href="#m3e8518e51c" x="231.436281" y="106.436286" style="fill: #00bfbf"/>
     <use xlink:href="#m3e8518e51c" x="231.92109" y="105.593216" style="fill: #00bfbf"/>
     <use xlink:href="#m3e8518e51c" x="232.4059" y="104.778102" style="fill: #00bfbf"/>
     <use xlink:href="#m3e8518e51c" x="232.890709" y="103.991675" style="fill: #00bfbf"/>
     <use xlink:href="#m3e8518e51c" x="233.375519" y="103.234644" style="fill: #00bfbf"/>
     <use xlink:href="#m3e8518e51c" x="233.860329" y="102.507689" style="fill: #00bfbf"/>
     <use xlink:href="#m3e8518e51c" x="234.345138" y="101.811466" style="fill: #00bfbf"/>
     <use xlink:href="#m3e8518e51c" x="234.829948" y="101.146601" style="fill: #00bfbf"/>
     <use xlink:href="#m3e8518e51c" x="235.314758" y="100.513692" style="fill: #00bfbf"/>
     <use xlink:href="#m3e8518e51c" x="235.799567" y="99.913308" style="fill: #00bfbf"/>
     <use xlink:href="#m3e8518e51c" x="236.284377" y="99.34599" style="fill: #00bfbf"/>
     <use xlink:href="#m3e8518e51c" x="236.769186" y="98.812249" style="fill: #00bfbf"/>
     <use xlink:href="#m3e8518e51c" x="237.253996" y="98.312565" style="fill: #00bfbf"/>
     <use xlink:href="#m3e8518e51c" x="237.738806" y="97.847387" style="fill: #00bfbf"/>
     <use xlink:href="#m3e8518e51c" x="238.223615" y="97.417134" style="fill: #00bfbf"/>
     <use xlink:href="#m3e8518e51c" x="238.708425" y="97.022194" style="fill: #00bfbf"/>
     <use xlink:href="#m3e8518e51c" x="239.193234" y="96.662921" style="fill: #00bfbf"/>
     <use xlink:href="#m3e8518e51c" x="239.678044" y="96.339639" style="fill: #00bfbf"/>
     <use xlink:href="#m3e8518e51c" x="240.162854" y="96.05264" style="fill: #00bfbf"/>
     <use xlink:href="#m3e8518e51c" x="240.647663" y="95.80218" style="fill: #00bfbf"/>
     <use xlink:href="#m3e8518e51c" x="241.132473" y="95.588487" style="fill: #00bfbf"/>
     <use xlink:href="#m3e8518e51c" x="241.617283" y="95.411751" style="fill: #00bfbf"/>
     <use xlink:href="#m3e8518e51c" x="242.102092" y="95.272133" style="fill: #00bfbf"/>
     <use xlink:href="#m3e8518e51c" x="242.586902" y="95.169757" style="fill: #00bfbf"/>
     <use xlink:href="#m3e8518e51c" x="243.071711" y="95.104716" style="fill: #00bfbf"/>
     <use xlink:href="#m3e8518e51c" x="243.556521" y="95.077068" style="fill: #00bfbf"/>
     <use xlink:href="#m3e8518e51c" x="244.041331" y="95.086838" style="fill: #00bfbf"/>
     <use xlink:href="#m3e8518e51c" x="244.52614" y="95.134018" style="fill: #00bfbf"/>
     <use xlink:href="#m3e8518e51c" x="245.01095" y="95.218565" style="fill: #00bfbf"/>
     <use xlink:href="#m3e8518e51c" x="245.49576" y="95.340403" style="fill: #00bfbf"/>
     <use xlink:href="#m3e8518e51c" x="245.980569" y="95.499422" style="fill: #00bfbf"/>
     <use xlink:href="#m3e8518e51c" x="246.465379" y="95.695479" style="fill: #00bfbf"/>
     <use xlink:href="#m3e8518e51c" x="246.950188" y="95.928398" style="fill: #00bfbf"/>
     <use xlink:href="#m3e8518e51c" x="247.434998" y="96.197969" style="fill: #00bfbf"/>
     <use xlink:href="#m3e8518e51c" x="247.919808" y="96.50395" style="fill: #00bfbf"/>
     <use xlink:href="#m3e8518e51c" x="248.404617" y="96.846064" style="fill: #00bfbf"/>
     <use xlink:href="#m3e8518e51c" x="248.889427" y="97.224005" style="fill: #00bfbf"/>
     <use xlink:href="#m3e8518e51c" x="249.374236" y="97.637432" style="fill: #00bfbf"/>
     <use xlink:href="#m3e8518e51c" x="249.859046" y="98.085973" style="fill: #00bfbf"/>
     <use xlink:href="#m3e8518e51c" x="250.343856" y="98.569225" style="fill: #00bfbf"/>
     <use xlink:href="#m3e8518e51c" x="250.828665" y="99.086752" style="fill: #00bfbf"/>
     <use xlink:href="#m3e8518e51c" x="251.313475" y="99.638089" style="fill: #00bfbf"/>
     <use xlink:href="#m3e8518e51c" x="251.798285" y="100.222739" style="fill: #00bfbf"/>
     <use xlink:href="#m3e8518e51c" x="252.283094" y="100.840177" style="fill: #00bfbf"/>
     <use xlink:href="#m3e8518e51c" x="252.767904" y="101.489847" style="fill: #00bfbf"/>
     <use xlink:href="#m3e8518e51c" x="253.252713" y="102.171164" style="fill: #00bfbf"/>
     <use xlink:href="#m3e8518e51c" x="253.737523" y="102.883515" style="fill: #00bfbf"/>
     <use xlink:href="#m3e8518e51c" x="254.222333" y="103.626259" style="fill: #00bfbf"/>
     <use xlink:href="#m3e8518e51c" x="254.707142" y="104.398727" style="fill: #00bfbf"/>
     <use xlink:href="#m3e8518e51c" x="255.191952" y="105.200225" style="fill: #00bfbf"/>
     <use xlink:href="#m3e8518e51c" x="255.676762" y="106.030031" style="fill: #00bfbf"/>
     <use xlink:href="#m3e8518e51c" x="256.161571" y="106.887398" style="fill: #00bfbf"/>
     <use xlink:href="#m3e8518e51c" x="256.646381" y="107.771555" style="fill: #00bfbf"/>
     <use xlink:href="#m3e8518e51c" x="257.13119" y="108.681706" style="fill: #00bfbf"/>
     <use xlink:href="#m3e8518e51c" x="257.616" y="109.617032" style="fill: #00bfbf"/>
    </g>
   </g>
  </g>
 </g>
 <defs>
  <clipPath id="p1a5e9af543">
   <rect x="3.6" y="3.6" width="266.112" height="266.112"/>
  </clipPath>
 </defs>
</svg>
